<svg xmlns="http://www.w3.org/2000/svg" width="200" height="200" viewBox="0 0 200 200">
<!-- SVG created with Arrow, by QuiverAI (https://quiver.ai) -->
  <path d="m12.55 152.8 21.48 23 14.15 4.48-14.39-21.01-21.24-6.47z" fill="#3B89B6" stroke="#B99E5E" stroke-linejoin="round" stroke-width="1.001"/>
  <path d="m12.39 152.6 18.62-13.93 0.3-0.23-0.33-3.23 25.43-20.48 5.08 3.02-18.82 35.01-8.92 6.65-21.36-6.81z" fill="#DEF3FC" stroke="#B99E5E" stroke-linejoin="round" stroke-width="1.001"/>
  <path d="m42.91 152.3-9.19 6.88 14.19 20.55 1.41-0.04-6.41-27.39z" fill="#1F3F78" stroke="#B99E5E" stroke-linejoin="round" stroke-width="1.001"/>
  <path d="m30.73 135.1 17.77 45.27 29.77 16.6-11.6-45.53-35.94-16.34z" fill="#96D7EE" stroke="#B99E5E" stroke-linejoin="round" stroke-width="1.001"/>
  <path d="m30.67 135.1 25.28-20.93 23.58 12.95 27.68-8.81 35.19 21.13-0.82 55.57-33.31-20.76-29.95 22.45-11.71-45.46-35.94-16.14z" fill="#DEF3FC" stroke="#B99E5E" stroke-linejoin="round" stroke-width="1.001"/>
  <path d="m107.6 118.6-40.92 32.74 11.56 45.63 29.96-22.73 15.26-24.55-13.89-9.96-1.97-21.13z" fill="#1F3F78" stroke="#B99E5E" stroke-linejoin="round" stroke-width="1.001"/>
  <path d="m108 140-12.31 10.28-4.41 29.98 16.6-21.82 15.03-9.03-14.91-9.41z" fill="#DEF3FC" stroke="#B99E5E" stroke-linejoin="round" stroke-width="1.001"/>
  <path d="m96.01 150.7 11.85 7.66-16.55 21.87 4.7-29.53z" fill="#3B89B6" stroke="#B99E5E" stroke-linejoin="round" stroke-width="1.001"/>
  <path d="m107.6 118.6 2 21.34 14.15 9.65-15.48 24.62 33.2 20.74 44.28-30.01 1.35-55.29-23.13-12.63-25.27 14.43-23.05-12.95-20.42 12.65 12.37 7.45z" fill="#DEF3FC" stroke="#B99E5E" stroke-linejoin="round" stroke-width="1.001"/>
  <path d="m108.2 118.9 34.26 20.59-0.85 55.2 44.05-29.81 1.3-55.13-44.4 29.74-34.36-20.59z" fill="#1F3F78" stroke="#B99E5E" stroke-linejoin="round" stroke-width="1.001"/>
  <path d="m114.1 52.04 24.86-14.43 39.04 19.01-0.43 47.19-13.76-7.09-25.18 14.43-23.05-12.95-1.48-46.16z" fill="#DEF3FC" stroke="#B99E5E" stroke-linejoin="round" stroke-width="1.001"/>
  <path d="m114.4 63.71 24.76 13.98-0.51 33.46-23.05-12.95-1.2-34.49z" fill="#96D7EE" stroke="#B99E5E" stroke-linejoin="round" stroke-width="1.001"/>
  <path d="m139.1 77.69 38.84-20.97-0.48 47.09-13.76-7.83-25.01 15.03 0.41-33.32z" fill="#1F3F78" stroke="#B99E5E" stroke-linejoin="round" stroke-width="1.001"/>
  <path d="m109.9 139.5 13.76 9.95-15.57 24.77-28.71 22.09 28.53-28.37 1.99-28.44z" fill="#96D7EE" stroke="#B99E5E" stroke-linejoin="round" stroke-width="1.001"/>
  <path d="m107.9 118.9 34.4 20.69-0.82 55.2-33.16-20.89 1.57-34.11-1.99-20.89z" fill="#96D7EE" stroke="#B99E5E" stroke-linejoin="round" stroke-width="1.001"/>
  <path d="m26.32 65.02 24.1-62.02 62.67 32.74 2.14 62.87-35.51 28.5-26.02-12.45-27.38-49.64z" fill="#DEF3FC" stroke="#B99E5E" stroke-linejoin="round" stroke-width="1.001"/>
  <path d="m26.32 65.02 16.69-3.52 7.41-58.5-24.1 62.02z" fill="#DEF3FC" stroke="#B99E5E" stroke-linejoin="round" stroke-width="1.001"/>
  <path d="m26.51 65.32 16.4-3.82 27.07 36.32 9.49 29.19-25.52-12.45-27.44-49.24z" fill="#96D7EE" stroke="#B99E5E" stroke-linejoin="round" stroke-width="1.001"/>
  <path d="m51.09 3 61.85 32.74-23.33 21.98-38.52-54.72z" fill="#96D7EE" stroke="#B99E5E" stroke-linejoin="round" stroke-width="1.001"/>
  <path d="m89.61 57.72 6.31 53.59-16.2 15.8-9.69-29.39 19.58-40z" fill="#3B89B6" stroke="#B99E5E" stroke-linejoin="round" stroke-width="1.001"/>
  <path d="m89.71 57.82 23.18-21.78 2.44 62.47-19.41 12.65-6.21-53.34z" fill="#1F3F78" stroke="#B99E5E" stroke-linejoin="round" stroke-width="1.001"/>
</svg>