<svg xmlns="http://www.w3.org/2000/svg" width="250" height="250" fill="none" viewBox="0 0 250 250">
<!-- SVG created with Arrow, by QuiverAI (https://quiver.ai) -->
  <path d="m142.7 24-19.52 7.9 20.74 4.54 22.98-4.12-24.2-8.32z" fill="#FEFFFE" stroke="#D7BA73" stroke-linecap="round" stroke-linejoin="round" stroke-width="1.5"/>
  <path d="m179.6 23.83 16.53 28.81 12.01 11.18-17.74-6.1-10.8-33.89z" fill="#FEFFFE" stroke="#D7BA73" stroke-linecap="round" stroke-linejoin="round" stroke-width="1.5"/>
  <path d="m148.1 38.89-24.91-6.99 19.62-7.81 36.6-0.28-8.99 8.77-22.32 6.31z" fill="#FEFFFE" stroke="#D7BA73" stroke-linecap="round" stroke-linejoin="round" stroke-width="1.5"/>
  <path d="m179.6 23.83 0.6 32.35-19.35-7.02-11.95-2.94-0.83-7.33 19.61-6.37 11.92-8.69z" fill="#FEFFFE" stroke="#D7BA73" stroke-linecap="round" stroke-linejoin="round" stroke-width="1.5"/>
  <path d="m179.6 23.83-7.24 13.34 7.32 8.64-0.08-21.98z" fill="#FEFFFE" stroke="#D7BA73" stroke-linecap="round" stroke-linejoin="round" stroke-width="1.5"/>
  <path d="m167.7 32.52-19.61 1.18-4.17-1.38-9.87 1.71 14.03 4.86 19.62-6.37z" fill="#FEFFFE" stroke="#D7BA73" stroke-linecap="round" stroke-linejoin="round" stroke-width="1.5"/>
  <path d="m179.6 23.83-11.92 8.69 2.71-0.2 9.21-8.49z" fill="#FEFFFE" stroke="#D7BA73" stroke-linecap="round" stroke-linejoin="round" stroke-width="1.5"/>
  <path d="m148.1 38.89-56.7-15.89-49 23.08-6.52 52.04-14.31 11.48-15.78 7.73 29.1-10.72 8.41-60.7 48.33-22.83 56.47 15.81z" fill="#D4EEF6" stroke="#D7BA73" stroke-linecap="round" stroke-linejoin="round" stroke-width="1.5"/>
  <path d="m42.52 46.5 25.2 25.09 23.9-48.51-49.1 23.42z" fill="#D4EEF6" stroke="#D7BA73" stroke-linecap="round" stroke-linejoin="round" stroke-width="1.5"/>
  <path d="m42.98 47.38 24.74 24.21-19.58 12.35-5.16-36.56z" fill="#B0DFEB" stroke="#D7BA73" stroke-linecap="round" stroke-linejoin="round" stroke-width="1.5"/>
  <path d="m67.72 71.59 11.19 14.39 69.19-46.37-55.84-14.51-24.54 46.49z" fill="#C6E8F1" stroke="#D7BA73" stroke-linecap="round" stroke-linejoin="round" stroke-width="1.5"/>
  <path d="m48.14 83.94 10.27 54.77 20.5-52.73-11.19-14.39-19.58 12.35z" fill="#A3DBEA" stroke="#D7BA73" stroke-linecap="round" stroke-linejoin="round" stroke-width="1.5"/>
  <path d="m32.8 105.7 10.49-59.82 4.85 38.03 1.68 17.87-6.49 18.47-10.53-14.55z" fill="#D4EEF6" stroke="#D7BA73" stroke-linecap="round" stroke-linejoin="round" stroke-width="1.5"/>
  <path d="m22.13 93.44 15.2-17.31-1.89 12.05-13.31 5.26z" fill="#FEFFFE" stroke="#D7BA73" stroke-linecap="round" stroke-linejoin="round" stroke-width="1.5"/>
  <path d="m22.13 93.44 7.8 14.4 4.85-2.43 0.66-17.23-13.31 5.26z" fill="#FEFFFE" stroke="#D7BA73" stroke-linecap="round" stroke-linejoin="round" stroke-width="1.5"/>
  <path d="m22.13 93.44-2.72 17.68 13.39-5.39-10.67-12.29z" fill="#FEFFFE" stroke="#D7BA73" stroke-linecap="round" stroke-linejoin="round" stroke-width="1.5"/>
  <path d="m32.8 105.7-27.02 11.6 37.55 2.95-10.53-14.55z" fill="#E7F5FC" stroke="#D7BA73" stroke-linecap="round" stroke-linejoin="round" stroke-width="1.5"/>
  <path d="m5.78 122.3-1.81 7.58 46 39.32 0.05-16.77-44.24-30.13z" fill="#98D8E5" stroke="#D7BA73" stroke-linecap="round" stroke-linejoin="round" stroke-width="1.5"/>
  <path d="m7.87 126.1 13.3 19.58-10.04 5.08 38.73 26.91 0.11-17.81-42.1-33.76z" fill="#30A6AA" stroke="#D7BA73" stroke-linecap="round" stroke-linejoin="round" stroke-width="1.5"/>
  <path d="m11.13 158.2 36.13 27.67 8.81-15.81-35.15-24.32-9.79 5.01 38.18 28.95" fill="#229899"/>
  <path d="m11.13 158.2 36.13 27.67 8.81-15.81-35.15-24.32-9.79 5.01 38.18 28.95" stroke="#D7BA73" stroke-linecap="round" stroke-linejoin="round" stroke-width="1.5"/>
  <path d="m8.71 167.1 37.2 28.85 4.11-10.85-36.04-24.35-5.27 3.65 38.19 28.89" fill="#17878A"/>
  <path d="m8.71 167.1 37.2 28.85 4.11-10.85-36.04-24.35-5.27 3.65 38.19 28.89" stroke="#D7BA73" stroke-linecap="round" stroke-linejoin="round" stroke-width="1.5"/>
  <path d="m9.72 174.7 35.88 25.41 2.11-6.97-32.5-13.84-5.49-4.6z" fill="#166C78" stroke="#D7BA73" stroke-linecap="round" stroke-linejoin="round" stroke-width="1.5"/>
  <path d="m10.31 187.9 1.81 14.88 22.99 7.91 3.58-11.56-23.21-18.31-5.17 7.08z" fill="#B8E3EA" stroke="#D7BA73" stroke-linecap="round" stroke-linejoin="round" stroke-width="1.5"/>
  <path d="m10.31 187.9 23.67 21.89 4.71-10.66-23.21-18.31-5.17 7.08z" fill="#CCE9F0" stroke="#D7BA73" stroke-linecap="round" stroke-linejoin="round" stroke-width="1.5"/>
  <path d="m39.17 209.5 51.82-9.87 46.93 10.18-47.87 15.14-50.88-15.45z" fill="#FEFFFE" stroke="#D7BA73" stroke-linecap="round" stroke-linejoin="round" stroke-width="1.5"/>
  <path d="m46.19 210.3 34.8 3.31-7.5-10.52-27.3 7.21z" fill="#FEFFFE" stroke="#D7BA73" stroke-linecap="round" stroke-linejoin="round" stroke-width="1.5"/>
  <path d="m74.61 202.8 12.16 9.27 3.66 12.69-9.44-11.1-7.5-10.52 1.12-0.34z" fill="#FEFFFE" stroke="#D7BA73" stroke-linecap="round" stroke-linejoin="round" stroke-width="1.5"/>
  <path d="m86.77 212 24.77-10.23 7.6 1.91-26.37 20.11" fill="#FEFFFE"/>
  <path d="m86.77 212 24.77-10.23 7.6 1.91-26.37 20.11" stroke="#D7BA73" stroke-linecap="round" stroke-linejoin="round" stroke-width="1.5"/>
  <path d="m84.02 193.7 100 29.6 47.39-37.19-5.83-4.96 5.99-5.55-5.54-8.79 7.44-5.2-4.79-2.91 16.67-32.08-5.54-3.22 5.54-5.55-6.42-3.38 7.21-6.37-5.83-4.29 5.83-3.38-25.32-7.26 2.12-4.57-4.24-2.29 6.16-9.9-5.83-2.81 3.74-6.54-14.64-3.25-59.24-17.6 3.22 9.42-73.24 30.34-20.5 52.73-6.8 2.53-8.28-20.96-37.55-2.95 44.19 35.09-0.49 16.19 6.6 0.91-9.89 14.13-0.59 9.87 38.42 0.19z" fill="#225587" stroke="#D7BA73" stroke-linecap="round" stroke-linejoin="round" stroke-width="1.5"/>
  <path d="m180.2 117.6 40.63-24.43 23.35 6.43-46.9 27.99-32.8-6.69 15.72-3.3z" fill="#175285" stroke="#D7BA73" stroke-linecap="round" stroke-linejoin="round" stroke-width="1.5"/>
  <path d="m157.6 128.1 81.36-13.63 5.55 3.22-48.67 34.27-38.24-16.96v-6.9z" fill="#154571" stroke="#D7BA73" stroke-linecap="round" stroke-linejoin="round" stroke-width="1.5"/>
  <path d="m165.8 138.2 28.11 5.33 1.89 8.41-29.84-6.75-0.16-6.99z" fill="#133662" stroke="#D7BA73" stroke-linecap="round" stroke-linejoin="round" stroke-width="1.5"/>
  <path d="m220.9 144.4 7.6 2.85 5.83 8.78-11.97 11.48-3.25-12.61 1.79-10.5z" fill="#2D85B3" stroke="#D7BA73" stroke-linecap="round" stroke-linejoin="round" stroke-width="1.5"/>
  <path d="m196.4 151.6 18.73-1.59 4.14 6.91-16.4 21.77-6.47-27.09z" fill="#236698" stroke="#D7BA73" stroke-linecap="round" stroke-linejoin="round" stroke-width="1.5"/>
  <path d="m221.2 167.3 6.16 2.98 2.84 6.66-18.5 16.96-1.65-4.8 11.15-21.8z" fill="#133662" stroke="#D7BA73" stroke-linecap="round" stroke-linejoin="round" stroke-width="1.5"/>
  <path d="m207.9 196.1 20-13.07 3.37 2.95-25.97 20.47 2.6-10.35z" fill="#153964" stroke="#D7BA73" stroke-linecap="round" stroke-linejoin="round" stroke-width="1.5"/>
  <path d="m182.6 214.1 23.51-19.41-3.78 14.23-18.28 14.36-1.45-9.18z" fill="#132A56" stroke="#D7BA73" stroke-linecap="round" stroke-linejoin="round" stroke-width="1.5"/>
  <path d="m84.02 193.1 98.59 21.04 1.45 8.48-100-28.9v-0.62z" fill="#133662" stroke="#D7BA73" stroke-linecap="round" stroke-linejoin="round" stroke-width="1.5"/>
  <path d="m95.26 190.6 84.8 18.56 24.2-19.01-1.43-10.83 3.26-5.17-5.83-4.03-5.54 2.29-11.34-24.09-8.37-1.07-19.02 30.47-24.91 4.83-35.82 8.05z" fill="#2675A1" stroke="#D7BA73" stroke-linecap="round" stroke-linejoin="round" stroke-width="1.5"/>
  <path d="m113.1 187.5 49.19-6.34 16.5-23.54 10.27 1.71-5.67-11.05-8.37-1.07-19.02 30.47-18.18 4.53-24.72 5.29z" fill="#154B7C"/>
  <path d="m171 192.3 9.22 8.83-1.74 6.84-79.43-17.98 11.95-2.85 60 12.78" stroke="#D7BA73" stroke-linecap="round" stroke-linejoin="round" stroke-width="1.5"/>
  <path d="m171 192.3 23.76-19.92 0.06 15.42-16.34 15.61" stroke="#D7BA73" stroke-linecap="round" stroke-linejoin="round" stroke-width="1.5"/>
  <path d="m183.4 148.3 11.34 24.09 5.54-2.29-6.3-18.02-10.58-3.78z" fill="#2675A1" stroke="#D7BA73" stroke-linecap="round" stroke-linejoin="round" stroke-width="1.5"/>
  <path d="m195.8 136.7v7.58l47.01-32.44 2.85-3.39-5.83-3.38-44.03 31.63z" fill="#154571" stroke="#D7BA73" stroke-linecap="round" stroke-linejoin="round" stroke-width="1.5"/>
  <path d="m195.5 111 25.53-36.86 3.86 2.28-29.56 35.55-1.16 8.02 1.33-8.99z" fill="#3099A0" stroke="#D7BA73" stroke-linecap="round" stroke-linejoin="round" stroke-width="1.5"/>
  <path d="m148.9 46.22 59.24 17.6 14.64 3.25-16.3 16.87-12.5-13.89-6.93-12.33-19.37-4.97-18.78-6.53z" fill="#60C0BD" stroke="#D7BA73" stroke-linecap="round" stroke-linejoin="round" stroke-width="1.5"/>
  <path d="m146.1 50.02 20.82 13.21-24.2 1.31 3.38-14.52z" fill="#1D919D"/>
  <path d="m146.1 50.02-66.2 36.24 8.17 10.75 64.09-33.32-3.22-10.94-2.84-2.73z" fill="#138D9D"/>
  <path d="m114.4 79.01 53.3-26.26 12.35 2.89-0.52 22.27-16.04-2.1-13.99-5.76-35.1 8.96z" fill="#50B7B3"/>
  <path d="m172.9 73.61 18.88 18.06 0.89 1.03 13.18-8.76-11.88-13.89-10.53-4.03-10.54 7.59z" fill="#60C0BD" stroke="#D7BA73" stroke-linecap="round" stroke-linejoin="round" stroke-width="1.5"/>
  <path d="m163.5 75.81-14.4 13.28 45.59 11.81 11.2-16.96-11.88-13.89-10.53-4.03-10.54 7.59-9.44 2.2z" fill="#60C0BD" stroke="#D7BA73" stroke-linecap="round" stroke-linejoin="round" stroke-width="1.5"/>
  <path d="m114.4 79.01 34.69 10.08 29.11 8.42 16.48 3.39 1.16 7.01-75.61-18.82-5.83-10.08z" fill="#51B7B3" stroke="#D7BA73" stroke-linecap="round" stroke-linejoin="round" stroke-width="1.5"/>
  <path d="m123.2 94.91 70.77 19.57 1.55 5.51-72.32-20.08v-5z" fill="#51B7B3" stroke="#D7BA73" stroke-linecap="round" stroke-linejoin="round" stroke-width="1.5"/>
  <path d="m168.6 114.7-33.74 13.96-30.46-14.19 18.74-12.34 45.46 12.57z" fill="#A3DBEA" stroke="#D7BA73" stroke-linecap="round" stroke-linejoin="round" stroke-width="1.5"/>
  <path d="m104.4 114.5 30.46 14.19 0.17 15.45-34.67 5.91 0.25-11.32 3.79-24.23z" fill="#B5E2ED" stroke="#D7BA73" stroke-linecap="round" stroke-linejoin="round" stroke-width="1.5"/>
  <path d="m49.97 152.4 50.69-13.71 34.25-10.04v8.04l-38 12.6-46.89 10.91-0.05-7.8z" fill="#87D1E1" stroke="#D7BA73" stroke-linecap="round" stroke-linejoin="round" stroke-width="1.5"/>
  <path d="m56.07 168.3 79.43-22.03 22.11-10.46 5.89 1.41-14.4 20.46-101.6 21.34 8.55-10.72z" fill="#159596" stroke="#D7BA73" stroke-linecap="round" stroke-linejoin="round" stroke-width="1.5"/>
  <path d="m46.68 183.7 101.8-25.5 1.5 11.3-104.4 18.4 1.08-4.2z" fill="#229899" stroke="#D7BA73" stroke-linecap="round" stroke-linejoin="round" stroke-width="1.5"/>
  <path d="m148.5 169.5 6.6 7.09-109.2 21.51 0.77-5 101.8-23.6z" fill="#17878A" stroke="#D7BA73" stroke-linecap="round" stroke-linejoin="round" stroke-width="1.5"/>
  <path d="m149.1 157.7 17.51-14.5 4.35 3.72-17.51 25.43-4.35-2.85v-11.8z" fill="#17878A" stroke="#D7BA73" stroke-linecap="round" stroke-linejoin="round" stroke-width="1.5"/>
  <path d="m36.71 97.73 8.17-44.72 2.83 44.5 3.42 23.74-5.22-3.39-9.2-20.13z" fill="#C6E8F1"/>
  <path d="m47.71 97.51 13.47 6.9-9 20.21-6.27-6.76 1.8-20.35z" fill="#6DC1D6"/>
  <path d="m72.88 73.43 45-9.96-6.82-9.7-42.85 17.33 4.67 2.33z" fill="#6DC1D6"/>
  <path d="m91.91 26.11-9.29 35.58 11.95-31.29-1.81-5.3-0.85 1.01z" fill="#FEFFFE"/>
  <path d="m19.41 122.6 27.49 24.6-5.09-5.97-24.9-19.63 2.5 1z" fill="#FEFFFE"/>
  <path d="m58.41 145.2 32.5-17.34-13.47 6.88-19.03 10.46z" fill="#FEFFFE"/>
  <path d="m103.3 124.1 29.22 4.56-5.83-1.58-22.23-4.8-1.16 1.82z" fill="#C6E8F1"/>
  <path d="m121.4 104 39.49 12.1-5.54 0.17-39.93-9.97 5.98-2.3z" fill="#87D1E1"/>
  <path d="m78.91 85.98 67.81-36.86 1.38-9.51-73.49 35.1 4.3 11.27z" fill="#73CCDF" fill-opacity=".75"/>
  <path d="m80.99 125.6-6.38-8.59-5.99 16.99 12.37-8.4z" fill="#17878A" stroke="#D7BA73" stroke-linecap="round" stroke-linejoin="round" stroke-width="1.5"/>
  <path d="m80.99 125.6 1.77-21.2 8.15-3.97-6.99-7.26-9.31 23.84 6.38 8.59z" fill="#17878A" stroke="#D7BA73" stroke-linecap="round" stroke-linejoin="round" stroke-width="1.5"/>
  <path d="m90.91 100.4 13.54 13.17 8.37-33.49-15.61 6.99-6.3 13.33z" fill="#17878A" stroke="#D7BA73" stroke-linecap="round" stroke-linejoin="round" stroke-width="1.5"/>
  <path d="m104.4 113.6 16.94-25 1.8 13.53-18.74 11.47z" fill="#17878A" stroke="#D7BA73" stroke-linecap="round" stroke-linejoin="round" stroke-width="1.5"/>
  <path d="m83.92 93.18 13.29-6.07" stroke="#D7BA73" stroke-linecap="round" stroke-linejoin="round" stroke-width="1.5"/>
  <path d="m82.76 104.4 25.96-11.23" stroke="#D7BA73" stroke-linecap="round" stroke-linejoin="round" stroke-width="1.5"/>
  <path d="m112.8 80.12 8.57 8.49" stroke="#D7BA73" stroke-linecap="round" stroke-linejoin="round" stroke-width="1.5"/>
</svg>