<svg xmlns="http://www.w3.org/2000/svg" width="200" height="200" fill="none" viewBox="0 0 200 200">
<!-- SVG created with Arrow, by QuiverAI (https://quiver.ai) -->
  <path d="m13.86 183.5v11.54h-1.21v-5.27h-6.53v5.27h-1.23v-11.54h1.23v5.17h6.53v-5.17h1.21z" fill="#0F578A"/>
  <path d="m24.19 191.8h-6.55l-1.35 3.23h-1.3l5.32-11.54h1.21l5.32 11.54h-1.32l-1.33-3.23zm-0.48-1.07-2.8-6.02-2.8 6.02h5.6z" fill="#0F578A"/>
  <path d="m37.12 187.5c0 2.74-1.9 4.34-5.05 4.34h-3.34v3.17h-1.23v-11.54h4.57c3.15 0.01 5.05 1.52 5.05 4.03zm-1.23 0.16c0-1.98-1.38-3.09-3.82-3.09h-3.28v6.18h3.28c2.44 0 3.82-1.12 3.82-3.09z" fill="#0F578A"/>
  <path d="m44.3 190.3c0-3.35 0.87-6.07 2.02-7.41l0.93 0.22c-1.2 1.92-1.87 4.15-1.87 7.1s0.67 5.18 1.87 7.1l-0.93 0.22c-1.15-1.34-2.02-3.88-2.02-7.23z" fill="#0F578A"/>
  <path d="m57.46 183.5v11.54h-1.21v-5.27h-6.34v5.27h-1.23v-11.54h1.23v5.17h6.34v-5.17h1.21z" fill="#0F578A"/>
  <path d="m65.5 191.3v3.77h-1.21v-3.77l-4.71-7.77h1.34l4.1 6.72 4.1-6.72h1.24l-4.86 7.77z" fill="#0F578A"/>
  <path d="m71.57 183.5h4.86c3.88 0 6.19 2.66 6.19 5.61 0 3.13-2.31 5.93-6.19 5.93h-4.86v-11.54zm4.74 10.45c3.21 0 5.08-2.4 5.08-5.06 0-2.54-1.87-4.3-5.08-4.3h-3.51v9.36h3.51z" fill="#0F578A"/>
  <path d="m91.79 195.1-2.66-3.87c-0.34 0.04-0.68 0.07-1.06 0.07h-2.81v3.79h-1.23v-11.54h4.35c2.94 0 4.44 1.32 4.44 3.75 0 1.81-0.88 3.06-2.53 3.65l2.82 4.14h-1.32v0.01zm-3.47-4.89c2.29 0 3.39-1.02 3.39-2.84 0-1.77-1.1-2.72-3.39-2.72h-3.06v5.56h3.06z" fill="#0F578A"/>
  <path d="m94.06 189.3c0-3.48 2.46-5.77 5.91-5.77 3.59 0 5.77 2.46 5.77 5.77 0 3.48-2.39 5.77-5.84 5.77-3.59 0-5.84-2.46-5.84-5.77zm10.45-0.07c0-2.9-1.84-4.61-4.6-4.61-3 0-4.62 2.02-4.62 4.75 0 2.9 1.84 4.61 4.6 4.61 3 0 4.62-2.02 4.62-4.75z" fill="#0F578A"/>
  <path d="m115 195.1-4.04-5.38-3.92 5.38h-1.48l4.64-6.09-4.03-5.45h1.48l3.35 4.85 3.56-4.85h1.37l-4.23 5.38 4.78 6.16h-1.48z" fill="#0F578A"/>
  <path d="m121.7 191.3v3.77h-1.72v-3.77l-4.71-7.77h1.53l4.1 6.72 4.1-6.72h1.55l-4.85 7.77z" fill="#0F578A"/>
  <path d="m134.1 191.8h-6.31l-1.28 3.23h-1.25l5.5-11.54h1.26l5.29 11.54h-1.43l-1.78-3.23zm-0.51-1.07-2.7-6.02-2.59 6.02h5.29z" fill="#0F578A"/>
  <path d="m147 187.5c0 2.74-1.9 4.34-5.05 4.34h-2.8v3.17h-1.23v-11.54h4.57c3.15 0.01 4.51 1.52 4.51 4.03zm-1.23 0.16c0-1.98-1.16-3.09-3.6-3.09h-3.02v6.18h3.02c2.44 0 3.6-1.12 3.6-3.09z" fill="#0F578A"/>
  <path d="m155.4 191.8h-5.97l-1.35 3.23h-1.3l5.32-11.54h1.21l5.32 11.54h-1.32l-1.91-3.23zm-0.48-1.07-2.8-6.02-2.8 6.02h5.6z" fill="#0F578A"/>
  <path d="m166.5 184.6h-3.94v10.45h-1.23v-10.45h-3.94v-1.09h9.11v1.09z" fill="#0F578A"/>
  <path d="m168.5 183.5h1.23v11.54h-1.23v-11.54z" fill="#0F578A"/>
  <path d="m180.8 184.6h-3.94v10.45h-1.23v-10.45h-3.94v-1.09h9.11v1.09z" fill="#0F578A"/>
  <path d="m190.7 194v1.09h-7.91v-11.54h7.81v1.09h-6.58v4.08h5.91v1h-5.91v4.28h6.68z" fill="#0F578A"/>
  <path d="m192.5 197.5c1.2-1.92 1.87-4.15 1.87-7.1s-0.67-5.18-1.87-7.1l0.93-0.22c1.15 1.34 2.02 4.06 2.02 7.41s-0.87 5.67-2.02 7.01h-0.93z" fill="#0F578A"/>
  <path d="m33.19 32.51 3.42-4.92 5.13 0.72 24.54 40.7-0.16 5.12-1.29 3.05-31.64-44.67z" fill="#C7E8F5" stroke="#B3A36B" stroke-miterlimit="10" stroke-width=".5"/>
  <path d="m34.81 32.75 3.42-3.42 29.51 45.37-2.48 3.26-30.45-45.21z" fill="#39c" stroke="#B3A36B" stroke-miterlimit="10" stroke-width=".5"/>
  <path d="m35.53 48.68 2.9 0.72 27.53 37.26-0.72 4.27-29.71-38.44v-3.81z" fill="#91D3F2" stroke="#B3A36B" stroke-miterlimit="10" stroke-width=".5"/>
  <path d="m36.33 50.12 2.3 1.08 27.64 36.77-0.32 1.48-29.62-37.45v-1.88z" fill="#39c" stroke="#B3A36B" stroke-miterlimit="10" stroke-width=".5"/>
  <path d="m42.7 76.74 2.48-0.24 20.05 16.61-0.96 2-21.33-16.25-0.24-2.12z" fill="#91D3F2" stroke="#B3A36B" stroke-miterlimit="10" stroke-width=".5"/>
  <path d="m43.42 77.3 1.21-0.24 19.88 16.17-0.48 0.96-20.61-16.89z" fill="#00559E" stroke="#B3A36B" stroke-miterlimit="10" stroke-width=".5"/>
  <path d="m30.3 96.29 5.83-5.84 7.29-1.92 21.33 6.66 0.32 5.52-5.13 8.21-28.28-11.01-1.36-1.62z" fill="#C7E8F5" stroke="#B3A36B" stroke-miterlimit="10" stroke-width=".5"/>
  <path d="m32.14 94.21 30.17 11.09-1.55 2.6-29.82-11.3 1.2-2.39z" fill="#39c" stroke="#B3A36B" stroke-miterlimit="10" stroke-width=".5"/>
  <path d="m31.82 101.7-1.76 3.05 3.97 7.46 17.18 7.09 3.42-5.04-0.96-3.42-21.85-9.14z" fill="#00559E" stroke="#B3A36B" stroke-miterlimit="10" stroke-width=".5"/>
  <path d="m31.26 106.7 21.69 8.75-1.28 2.2-19.21-8.67-1.2-2.28z" fill="#39c" stroke="#B3A36B" stroke-miterlimit="10" stroke-width=".5"/>
  <path d="m38.39 15.6 4.03-7.3 8.21 0.52 23.17 45.61 0.32 8.38-3.77 9.14-31.96-56.35z" fill="#C7E8F5" stroke="#B3A36B" stroke-miterlimit="10" stroke-width=".5"/>
  <path d="m38.31 15.36 9.3 0.96 23.82 46.41-1.36 7.38-31.76-54.75z" fill="#91D3F2" stroke="#B3A36B" stroke-miterlimit="10" stroke-width=".5"/>
  <path d="m48.77 8.58 1.63 0.48-3.07 7.18-8.98-0.88 4.03-7.14 6.39 0.36z" fill="#39c" stroke="#B3A36B" stroke-miterlimit="10" stroke-width=".5"/>
  <path d="m51.83 25.61 3.5 0.8 20.65 40.94-1.28 2.74-22.55-38.76-0.32-5.72z" fill="#C7E8F5" stroke="#B3A36B" stroke-miterlimit="10" stroke-width=".5"/>
  <path d="m65.58 21.92 5.66 4.85 12.17 37.18-3.28 3.77-14.51-41.59-0.04-4.21z" fill="#C7E8F5" stroke="#B3A36B" stroke-miterlimit="10" stroke-width=".5"/>
  <path d="m66.06 26.05 5.13 2.64 10.86 36.77-1.84 1.58-14.15-40.99z" fill="#39c" stroke="#B3A36B" stroke-miterlimit="10" stroke-width=".5"/>
  <path d="m64.07 41.72 4.61 2 9.06 19.8-2.12 2.64-11.55-24.44z" fill="#39c" stroke="#B3A36B" stroke-miterlimit="10" stroke-width=".5"/>
  <path d="m80.05 14.21 2.12-0.88 1.48 43.58-1.24 4.35-2.36-47.05z" fill="#C7E8F5" stroke="#B3A36B" stroke-miterlimit="10" stroke-width=".5"/>
  <path d="m80.61 14.45 1.76-0.32 1.24 42.3-0.88 1.63-2.12-43.61z" fill="#00559E" stroke="#B3A36B" stroke-miterlimit="10" stroke-width=".5"/>
  <path d="m87.68 35.06 2.12-1.36 1.36 3.61-2.72 11.41-1.92 1.36 1.16-15.02z" fill="#91D3F2" stroke="#B3A36B" stroke-miterlimit="10" stroke-width=".5"/>
  <path d="m88.64 35.7 1.16 1.44-1.52 13.58-1.12 0.68 1.48-15.7z" fill="#00559E" stroke="#B3A36B" stroke-miterlimit="10" stroke-width=".5"/>
  <path d="m100.4 29.7 8.61-0.4 0.24 10.37-3.5 9.93-6.67-5.4 1.32-14.5z" fill="#00559E" stroke="#B3A36B" stroke-miterlimit="10" stroke-width=".5"/>
  <path d="m109.5 14.45 5.13-8.54 10.07-0.88 15.27-1.7 8.69 4.57 4.44 4.56-0.88 136.4-2.4 2.97-3.6-0.16-4.97 6.08-4.27-0.96-5.21 6.78-6.83 0.08-9.18-0.24-11.63-7.85v-140.6l5.37-0.48z" fill="#C7E8F5" stroke="#B3A36B" stroke-miterlimit="10" stroke-width=".5"/>
  <path d="m109.5 14.45 11.08 3.03 1.23 37.18-2.48 4 0.36 11.41-6.99 10.03-3.43-4.08 0.23-61.57z" fill="#91D3F2" stroke="#B3A36B" stroke-miterlimit="10" stroke-width=".5"/>
  <path d="m114.3 5.67 7.94-0.4 5.88 7.34-7.71 4.79-11.08-3.19 4.97-8.54z" fill="#00559E" stroke="#B3A36B" stroke-miterlimit="10" stroke-width=".5"/>
  <path d="m128.2 2.5 13.44 0.56 4.69 4.25-17.89 5.22-4.31-7.1 4.07-2.93z" fill="#C7E8F5" stroke="#B3A36B" stroke-miterlimit="10" stroke-width=".5"/>
  <path d="m128.6 12.45 18.62-5.14 5.83 5.3-6.12 5.6-12.33 2.32-6-8.08z" fill="#39c" stroke="#B3A36B" stroke-miterlimit="10" stroke-width=".5"/>
  <path d="m142 12.77 4.19-5.03 2.9 1.08 3.76 3.71-5.91 5.84-4.94-4.28v-1.32z" fill="#91D3F2" stroke="#B3A36B" stroke-miterlimit="10" stroke-width=".5"/>
  <path d="m134.5 20.61 8.28-0.16-0.08 135.9-5.36 1.52-0.4-57.75-0.16-37.49-2.28-1.8v-40.21z" fill="#00559E" stroke="#B3A36B" stroke-miterlimit="10" stroke-width=".5"/>
  <path d="m128.5 12.53 6 8.08v136.4l-3.2 6.1-6.67 0.08-3.2-3.5-0.64-99.4 7.39-6.03 0.32-41.78z" fill="#91D3F2" stroke="#B3A36B" stroke-miterlimit="10" stroke-width=".5"/>
  <path d="m128.2 13.09-3.43 2.87-0.48 143.9" stroke="#B3A36B" stroke-miterlimit="10" stroke-width=".5"/>
  <path d="m146 18.37-0.16 133.3" stroke="#B3A36B" stroke-miterlimit="10" stroke-width=".5"/>
  <path d="m120 60.74 7.64-6.75 9.45 8.63-5.29 6.18-6.51-0.48-5.29-7.58z" fill="#39c" stroke="#B3A36B" stroke-miterlimit="10" stroke-width=".5"/>
  <path d="m99.87 29.62 3.35 7.4 0.8 3.05 4.9-0.64 5.28-4.25 2.04 0.88 2.94 5.54-0.64 3.32 1.77 8.19-3.24 4.96-10.06 18.43-2.08 33.25-9.33-16.32-4.08-5.3 8.35-58.51z" fill="#C7E8F5" stroke="#B3A36B" stroke-miterlimit="10" stroke-width=".5"/>
  <path d="m102.3 37.14 1.95 3.68 9.7-4.16 2.12 5.54 3.02 0.72-1.24 2.48 2.73 7.23-4.51-0.8-15.97 24.59-8.39-3.36 10.59-35.92z" fill="#00559E" stroke="#B3A36B" stroke-miterlimit="10" stroke-width=".5"/>
  <path d="m104.2 40.82-24.29 41.79-7.67 15.66 0.48-8.1 10.55-26.02 18.9-27.25 2.03 3.92z" fill="#C7E8F5" stroke="#B3A36B" stroke-miterlimit="10" stroke-width=".5"/>
  <path d="m115.9 41.36-2.04 10.52-36.46 55.24-5.36-1.08 41.82-67.98 2.04 3.3z" fill="#39c" stroke="#B3A36B" stroke-miterlimit="10" stroke-width=".5"/>
  <path d="m119.1 52.71 1.49 0.56-42.38 68.87-1.39-3.12 40.33-65.99 1.95-0.32z" fill="#39c" stroke="#B3A36B" stroke-miterlimit="10" stroke-width=".5"/>
  <path d="m108.1 76.1 4.51 1.88 1.05 36.77-5.76-2.4 0.2-36.25z" fill="#00559E" stroke="#B3A36B" stroke-miterlimit="10" stroke-width=".5"/>
  <path d="m160.3 61.58 7.79 3.48 1.84 5.29-17.93 27.32-14.78 22.15-0.32-14.06 23.4-44.18z" fill="#C7E8F5" stroke="#B3A36B" stroke-miterlimit="10" stroke-width=".5"/>
  <path d="m160.3 62.46 7.23 2.28 1.96 5.45-3.76 2.08-4.63-1.76-1.76-4.09 0.96-3.96z" fill="#00559E" stroke="#B3A36B" stroke-miterlimit="10" stroke-width=".5"/>
  <path d="m163.8 71.15 1.95 1.08-28.67 43.82-0.08-4.42 26.8-40.48z" fill="#39c" stroke="#B3A36B" stroke-miterlimit="10" stroke-width=".5"/>
  <path d="m145.2 107.3-8.12 12.03v7.26l0.12 30.53 4.19-0.88 4.09-5.04-0.28-43.9z" fill="#00559E" stroke="#B3A36B" stroke-miterlimit="10" stroke-width=".5"/>
  <path d="m94.72 94.11 10.06 8.91-0.88 6.68-10.42-12.19 1.24-3.4z" fill="#C7E8F5" stroke="#B3A36B" stroke-miterlimit="10" stroke-width=".5"/>
  <path d="m87.12 105 46.55 16.26 1.96 7.62-3.35 17.55-2.66 0.24-2.24 2.78-6.43 0.64-44.97-20.33 1.16-6.19 1.63-2.31 1.88-5.11 6.47-11.15z" fill="#91D3F2" stroke="#B3A36B" stroke-miterlimit="10" stroke-width=".5"/>
  <path d="m87.88 106.9 43.26 16.25-3.84 3.52-41.46-16.4 2.04-3.37z" fill="#C7E8F5" stroke="#B3A36B" stroke-miterlimit="10" stroke-width=".5"/>
  <path d="m85.76 112.2 41.42 15.53 2.52 5.33-5.43 2.32-44.5-16.18 2.6-4.88 3.39-2.12z" fill="#39c" stroke="#B3A36B" stroke-miterlimit="10" stroke-width=".5"/>
  <path d="m91.28 117.9 4.92-0.24 0.88 5.94-3.84 1.56-1.96-7.26z" fill="#00559E" stroke="#B3A36B" stroke-miterlimit="10" stroke-width=".5"/>
  <path d="m134.8 130.2 0.4 4.09-2.89 8.56-4.64-8.56 2.04-4.57 4.45-3.63 0.64 4.11z" fill="#00559E" stroke="#B3A36B" stroke-miterlimit="10" stroke-width=".5"/>
  <path d="m79.17 122.2 42.34 16.62 7.51-4.08-0.8 12.27-3.15 2.64-3.96-0.32-44.53-21.27 0.64-3.91 1.95-1.95z" fill="#39c" stroke="#B3A36B" stroke-miterlimit="10" stroke-width=".5"/>
  <path d="m76.14 129 32.74 17.31v3.84l-3.87-0.08-28.87-21.07z" fill="#91D3F2" stroke="#B3A36B" stroke-miterlimit="10" stroke-width=".5"/>
  <path d="m77.38 129.8 23.45 21.26-0.8 3.93-3.59-1.2-19.06-23.99z" fill="#91D3F2" stroke="#B3A36B" stroke-miterlimit="10" stroke-width=".5"/>
  <path d="m96.92 151.6 1.84 0.56v1.54l-2.08-0.78 0.24-1.32z" fill="#39c" stroke="#B3A36B" stroke-miterlimit="10" stroke-width=".5"/>
  <path d="m108.5 146.8 0.56 0.88v1.48l-1.92-0.64 1.36-1.72z" fill="#00559E" stroke="#B3A36B" stroke-miterlimit="10" stroke-width=".5"/>
  <path d="m120.4 142.4 5.08 2.2 1.08 3.42-2.28 2.16-2.96-1-1.68-5.06 0.76-1.72z" fill="#91D3F2" stroke="#B3A36B" stroke-miterlimit="10" stroke-width=".5"/>
  <path d="m115.8 147.3v16.01l-6.67-4.7-0.32-9.07 1.16-1.2 5.83-1.04z" fill="#39c" stroke="#B3A36B" stroke-miterlimit="10" stroke-width=".5"/>
  <path d="m57.19 46.12 0.88-3.92 13.67 33.82-1.76 2.84-12.79-32.74z" fill="#00559E" stroke="#B3A36B" stroke-miterlimit="10" stroke-width=".5"/>
  <path d="m44.02 127.1 2.12 9.52 3.68 3.8 9.53-1.29 0.72 4.93 5.51-1.32 18.39-36.21-11.23-0.32-28.72 20.89z" fill="#C7E8F5" stroke="#B3A36B" stroke-miterlimit="10" stroke-width=".5"/>
  <path d="m46.3 128.2 36.79-63.14 1.52 1.2-12.15 30.81-24.32 40.86-1.84-9.73z" fill="#91D3F2" stroke="#B3A36B" stroke-miterlimit="10" stroke-width=".5"/>
  <path d="m51.08 139.7 21.94-34.24 9.99-40.3-22.34 42.86-10.63 30.13 1.04 1.55z" fill="#C7E8F5" stroke="#B3A36B" stroke-miterlimit="10" stroke-width=".5"/>
  <path d="m65.18 142.7 13.75-30.46-1.39 8.27-12.36 22.19z" fill="#00559E" stroke="#B3A36B" stroke-miterlimit="10" stroke-width=".5"/>
  <path d="m72.5 133.1 1.16-0.88 3.96 18.69-0.88 2.18-0.92-1.2-3.32-18.79z" fill="#91D3F2" stroke="#B3A36B" stroke-miterlimit="10" stroke-width=".5"/>
  <path d="m76.26 151.2 0.72-0.96 0.64 1.56-0.64 0.72-0.72-1.32z" fill="#00559E" stroke="#B3A36B" stroke-miterlimit="10" stroke-width=".5"/>
  <path d="m76.26 132 9.66 24.22 2.24 1.08 0.48-2.75-10.51-23.35-1.87 0.8z" fill="#39c" stroke="#B3A36B" stroke-miterlimit="10" stroke-width=".5"/>
  <path d="m86.24 154.8 1.24 0.64 0.24-1.56-1.08-1.45-0.4 2.37z" fill="#C7E8F5" stroke="#B3A36B" stroke-miterlimit="10" stroke-width=".5"/>
  <path d="m83.61 65.22 0.96-0.8 1.55 3.04-1.35 2.97-1.24-0.96 0.08-4.25z" fill="#91D3F2" stroke="#B3A36B" stroke-miterlimit="10" stroke-width=".5"/>
  <path d="m92.24 70.07 4.04 0.08 1.76 4.36-1.6 1.43h-3.08l-2.08-2.32 0.96-3.55z" fill="#C7E8F5" stroke="#B3A36B" stroke-miterlimit="10" stroke-width=".5"/>
</svg>