<?xml version="1.0" encoding="UTF-8" standalone="no"?>
<svg
   width="259"
   height="255"
   fill="none"
   viewBox="0 0 259 255"
   version="1.1"
   id="svg68"
   sodipodi:docname="牙.svg"
   inkscape:version="1.4.2 (f4327f4, 2025-05-13)"
   xmlns:inkscape="http://www.inkscape.org/namespaces/inkscape"
   xmlns:sodipodi="http://sodipodi.sourceforge.net/DTD/sodipodi-0.dtd"
   xmlns="http://www.w3.org/2000/svg"
   xmlns:svg="http://www.w3.org/2000/svg">
  <defs
     id="defs68" />
  <sodipodi:namedview
     id="namedview68"
     pagecolor="#ffffff"
     bordercolor="#000000"
     borderopacity="0.25"
     inkscape:showpageshadow="2"
     inkscape:pageopacity="0.0"
     inkscape:pagecheckerboard="0"
     inkscape:deskcolor="#d1d1d1"
     inkscape:zoom="2.3862745"
     inkscape:cx="61.183237"
     inkscape:cy="113.77568"
     inkscape:window-width="2560"
     inkscape:window-height="1494"
     inkscape:window-x="-11"
     inkscape:window-y="-11"
     inkscape:window-maximized="1"
     inkscape:current-layer="svg68" />
  <!-- SVG created with Arrow, by QuiverAI (https://quiver.ai) -->
  <path
     d="m170.6 21.03c-14.11-0.31-19.83 6.63-41.4 7.23-15.71 0.47-23.52-7.44-40.46-7.35-21.82-0.1-37.68 19.05-38.01 45.41-0.24 17.94 6.57 33.29 14.66 49.79 4.09 8.78 4.71 17.73 3.48 27.84-1.8 15.79-1.72 34.21 1.69 51.18 5.33 24.52 17.55 58.02 30.39 57.87 8.25-0.1 8.85-13.74 8.31-25.28-0.33-18.93 4.53-68.54 20.51-68.84 12.56-0.25 19.94 27.89 19.06 59.28-0.55 10.76-1.39 34.52 9.93 34.75 11.6 0.23 25.05-32.17 30.18-55.83 3.36-14.37 2.67-29.89 1.45-45.29-0.97-11.58-0.97-23.72 3.58-33.15 8.82-17.53 14.9-32.37 14.55-50.77-0.89-25.58-15.51-46.84-37.92-46.84z"
     fill="#DEF1FA"
     stroke="#599DBC"
     stroke-miterlimit="10"
     stroke-width="1.5"
     id="path1" />
  <path
     d="m166.2 43.74c-8.87-0.23-17.27 5.98-34.52 6.11-13.75 0.12-21.82-5.38-35.72-5.23-19.1 0.22-32.12 18.75-32.46 41.53-0.21 15.46 4.83 25.76 9.43 37.7 3.52 9.34 1.98 18.42 0.91 27.34-1.58 14.07-1.82 28.52 1.19 43.54 4.59 21.43 15.13 54 26.3 57.06 3.4 0 2.6-12.64 2.14-22.87-0.29-16.46 3.94-71.23 25.87-74.65 15.71-0.5 24.22 27.31 23.68 56.54-0.19 9.54-1.4 27.05 3.91 41.04 9.13-0.81 20.97-27.69 26.92-49.43 4.76-17.04 5.31-31.35 3.01-49.93-1.49-10.26-1.03-23.67 2.91-32.58 6.39-14.36 6.99-23.2 6.35-36.9-1.14-17.65-11.44-38.8-29.92-39.27z"
     fill="#C5E8F3"
     stroke="#64A1B9"
     stroke-dasharray="2 2"
     stroke-miterlimit="10"
     stroke-width=".7"
     id="path2" />
  <path
     d="m167.8 127.8c-2.24-15.15-12.33-30.94-37.76-31.49-19.92-0.45-35.29 14.58-36.87 28.65-3.01 27.77-5.42 54.23-3.32 72.91 1.8 16.45 4.8 36.15 10.12 52.22 0.79 1.8 2.68 1.91 3.18-0.17 1-4.39-0.34-12.65-0.57-18.81-0.72-15.04-5.53-54.04 5.97-79.34 5.59-12.94 15.32-17.43 24.6-16.58 14.79 1.44 21.98 16.63 25.66 34.03 5.03 23.36 3.11 39.87-2.07 64.55-0.89 4-0.34 8.27 0.77 14.48 0.78 2.74 3.03 0.49 3.68-0.8 6.05-12.69 8.95-33.43 9.83-51.81 1.22-20.92-0.43-48.84-3.22-67.84z"
     fill="#FEFFFE"
     stroke="#CDBA7B"
     stroke-dasharray="2 2"
     stroke-miterlimit="10"
     stroke-width=".7"
     id="path3" />
  <path
     d="m142.3 114.1c1.48 8.02 8.03 12.17 10.38 15.99 4.5 7.26 3.53 11.63 3.53 11.63"
     stroke="#CDBA7B"
     stroke-miterlimit="10"
     stroke-width="1.08"
     id="path4" />
  <path
     d="m157.4 121c-4.22 9.95 0 23.37 0 23.37"
     stroke="#CDBA7B"
     stroke-miterlimit="10"
     stroke-width="1.08"
     id="path5" />
  <path
     d="m117.9 114c-1.85 8.4-8.47 14.48-10.82 18.13-3.98 6.27-5.7 12.86-5.7 12.86"
     stroke="#CDBA7B"
     stroke-miterlimit="10"
     stroke-width="1.08"
     id="path6" />
  <path
     d="m102.6 120.6c2.89 9.32-1.86 21.34-1.86 21.34"
     stroke="#CDBA7B"
     stroke-miterlimit="10"
     stroke-width="1.08"
     id="path7" />
  <path
     d="m122.2 125.6c-3.26 7.68-10.46 7-17.33 12.13"
     stroke="#CDBA7B"
     stroke-miterlimit="10"
     stroke-width="1.08"
     id="path8" />
  <path
     d="m136.5 125.4c3.25 7.68 10.67 7.09 17.54 12.22"
     stroke="#CDBA7B"
     stroke-miterlimit="10"
     stroke-width="1.08"
     id="path9" />
  <path
     d="m135.3 119.2"
     stroke="#CDBA7B"
     stroke-miterlimit="10"
     stroke-width="1.08"
     id="path10" />
  <path
     d="m142.4 116.1c1.94 0 1.94-3.13 0-3.13s-1.95 3.13 0 3.13z"
     fill="#CDBA7B"
     stroke="#CDBA7B"
     stroke-miterlimit="10"
     stroke-width=".7"
     id="path11" />
  <path
     d="m102.7 122.1c1.94 0 1.94-3.13 0-3.13-1.93 0-1.94 3.13 0 3.13z"
     fill="#CDBA7B"
     stroke="#CDBA7B"
     stroke-miterlimit="10"
     stroke-width=".7"
     id="path12" />
  <path
     d="m157.4 122.8c1.93 0 1.94-3.13 0-3.13s-1.94 3.13 0 3.13z"
     fill="#CDBA7B"
     stroke="#CDBA7B"
     stroke-miterlimit="10"
     stroke-width=".7"
     id="path13" />
  <path
     d="m122.2 127.3c1.94 0 1.94-3.13 0-3.13s-1.94 3.13 0 3.13z"
     fill="#CDBA7B"
     stroke="#CDBA7B"
     stroke-miterlimit="10"
     stroke-width=".7"
     id="path14" />
  <path
     d="m96.88 228.3c1.94 0 1.95-3.13 0-3.13-1.93 0-1.94 3.13 0 3.13z"
     fill="#CDBA7B"
     stroke="#CDBA7B"
     stroke-miterlimit="10"
     stroke-width=".7"
     id="path15" />
  <path
     d="m164.8 149 47.09 46.12h6.19"
     stroke="#879EAE"
     stroke-miterlimit="10"
     stroke-width=".5"
     id="path16" />
  <path
     d="m164.6 149.3c1.94 0 1.94-3.13 0-3.13s-1.94 3.13 0 3.13z"
     fill="#879EAE"
     id="path17" />
  <path
     d="m193.4 47.13 25.39 0.17"
     stroke="#879EAE"
     stroke-miterlimit="10"
     stroke-width=".5"
     id="path18" />
  <path
     d="m193.4 48.27c1.94 0 1.94-3.13 0-3.13s-1.94 3.13 0 3.13z"
     fill="#879EAE"
     id="path19" />
  <path
     d="m54.71 226.1h41.38"
     stroke="#879EAE"
     stroke-miterlimit="10"
     stroke-width=".5"
     id="path20" />
  <path
     d="m81.6 112.3h-45.67"
     stroke="#879EAE"
     stroke-miterlimit="10"
     stroke-width=".5"
     id="path21" />
  <path
     d="m81.65 113.3c1.94 0 1.94-3.13 0-3.13s-1.94 3.13 0 3.13z"
     fill="#879EAE"
     id="path22" />
  <path
     d="m68.91 63.61 29 49.78"
     stroke="#879EAE"
     stroke-dasharray="2 2"
     stroke-miterlimit="10"
     stroke-width=".5"
     id="path23" />
  <path
     d="m190.3 62.08-28.69 48.72"
     stroke="#879EAE"
     stroke-dasharray="2 2"
     stroke-miterlimit="10"
     stroke-width=".5"
     id="path24" />
  <path
     d="m90.72 45.71 18.07 55.57"
     stroke="#879EAE"
     stroke-dasharray="2 2"
     stroke-miterlimit="10"
     stroke-width=".5"
     id="path25" />
  <path
     d="m117.9 49.32 5.17 46.69"
     stroke="#879EAE"
     stroke-dasharray="2 2"
     stroke-miterlimit="10"
     stroke-width=".5"
     id="path26" />
  <path
     d="m142.1 48.31-4.6 47.7"
     stroke="#879EAE"
     stroke-dasharray="2 2"
     stroke-miterlimit="10"
     stroke-width=".5"
     id="path27" />
  <path
     d="m170 44.7-19.58 54.33"
     stroke="#879EAE"
     stroke-dasharray="2 2"
     stroke-miterlimit="10"
     stroke-width=".5"
     id="path28" />
  <path
     d="m76.64 93.97 8.05 3.96-7.57 5.28-0.48-9.24z"
     fill="#599DBC"
     id="path29" />
  <path
     d="m92.64 83.01 7.55 4.56-7.55 3.13v-7.69z"
     fill="#599DBC"
     id="path30" />
  <path
     d="m106.9 76.94 7.63-1.22-2.35 8.59-5.28-7.37z"
     fill="#599DBC"
     id="path31" />
  <path
     d="m129 73.81 4.26 8.2h-8.12l3.86-8.2z"
     fill="#599DBC"
     id="path32" />
  <path
     d="m144.1 75.21 7.87 2.48-4.59 7.01-3.28-9.49z"
     fill="#599DBC"
     id="path33" />
  <path
     d="m166.9 83.56 1.58 7.68-8.41-3 6.83-4.68z"
     fill="#599DBC"
     id="path34" />
  <path
     d="m179.8 92.71 6.67 5.38-8.17 3.19 1.5-8.57z"
     fill="#599DBC"
     id="path35" />
  <text
     xml:space="preserve"
     style="font-weight:bold;font-size:11.9887px;font-family:'Times New Roman';-inkscape-font-specification:'Times New Roman, Bold';text-align:start;writing-mode:lr-tb;direction:ltr;text-anchor:start;fill:#0088aa;stroke:#000000;stroke-width:0.239631;stroke-linecap:round;stroke-linejoin:round;stroke-opacity:0.714103;paint-order:markers fill stroke"
     x="10.895757"
     y="216.26535"
     id="text68"
     inkscape:highlight-color="#9db6b7"
     transform="scale(0.94153669,1.0620935)"><tspan
       sodipodi:role="line"
       id="tspan68"
       x="10.895757"
       y="216.26535"
       style="stroke-width:0.239631;fill:#0088aa">神经末梢</tspan></text>
  <text
     xml:space="preserve"
     style="font-weight:bold;font-size:11.9887px;font-family:'Times New Roman';-inkscape-font-specification:'Times New Roman, Bold';text-align:start;writing-mode:lr-tb;direction:ltr;text-anchor:start;fill:#0088aa;stroke:#000000;stroke-width:0.239631;stroke-linecap:round;stroke-linejoin:round;stroke-opacity:0.714103;paint-order:markers fill stroke"
     x="3.2082746"
     y="110.37725"
     id="text68-4"
     inkscape:highlight-color="#9db6b7"
     transform="scale(0.94153669,1.0620935)"><tspan
       sodipodi:role="line"
       id="tspan68-5"
       x="3.2082746"
       y="110.37725"
       style="stroke-width:0.239631;fill:#0088aa">牙本质</tspan><tspan
       sodipodi:role="line"
       x="3.2082746"
       y="125.36313"
       style="stroke-width:0.239631;fill:#0088aa"
       id="tspan70" /></text>
  <text
     xml:space="preserve"
     style="font-weight:bold;font-size:11.9887px;font-family:'Times New Roman';-inkscape-font-specification:'Times New Roman, Bold';text-align:start;writing-mode:lr-tb;direction:ltr;text-anchor:start;fill:#0088aa;stroke:#000000;stroke-width:0.239631;stroke-linecap:round;stroke-linejoin:round;stroke-opacity:0.714103;paint-order:markers fill stroke"
     x="231.64128"
     y="188.84045"
     id="text68-8"
     inkscape:highlight-color="#9db6b7"
     transform="scale(0.94153669,1.0620935)"><tspan
       sodipodi:role="line"
       id="tspan68-8"
       x="231.64128"
       y="188.84045"
       style="stroke-width:0.239631;fill:#0088aa">髓腔</tspan><tspan
       sodipodi:role="line"
       x="231.64128"
       y="203.82632"
       style="stroke-width:0.239631;fill:#0088aa"
       id="tspan69" /></text>
  <text
     xml:space="preserve"
     style="font-weight:bold;font-size:11.9887px;font-family:'Times New Roman';-inkscape-font-specification:'Times New Roman, Bold';text-align:start;writing-mode:lr-tb;direction:ltr;text-anchor:start;fill:#0088aa;stroke:#000000;stroke-width:0.239631;stroke-linecap:round;stroke-linejoin:round;stroke-opacity:0.714103;paint-order:markers fill stroke"
     x="237.26419"
     y="50.659645"
     id="text68-8-1"
     inkscape:highlight-color="#9db6b7"
     transform="scale(0.94153669,1.0620935)"><tspan
       sodipodi:role="line"
       id="tspan68-8-7"
       x="237.26419"
       y="50.659645"
       style="stroke-width:0.239631;fill:#0088aa">牙釉质</tspan><tspan
       sodipodi:role="line"
       x="237.26419"
       y="65.645523"
       style="stroke-width:0.239631;fill:#0088aa"
       id="tspan71" /><tspan
       sodipodi:role="line"
       x="237.26419"
       y="80.631393"
       style="stroke-width:0.239631;fill:#0088aa"
       id="tspan69-1" /></text>
</svg>
