<?xml version="1.0" encoding="UTF-8" standalone="no"?>
<svg
   width="256"
   height="243"
   fill="none"
   viewBox="0 0 256 243"
   version="1.1"
   id="svg153"
   sodipodi:docname="牙齿+矿化层.svg"
   inkscape:version="1.4.2 (f4327f4, 2025-05-13)"
   xmlns:inkscape="http://www.inkscape.org/namespaces/inkscape"
   xmlns:sodipodi="http://sodipodi.sourceforge.net/DTD/sodipodi-0.dtd"
   xmlns="http://www.w3.org/2000/svg"
   xmlns:svg="http://www.w3.org/2000/svg">
  <sodipodi:namedview
     id="namedview153"
     pagecolor="#ffffff"
     bordercolor="#000000"
     borderopacity="0.25"
     inkscape:showpageshadow="2"
     inkscape:pageopacity="0.0"
     inkscape:pagecheckerboard="0"
     inkscape:deskcolor="#d1d1d1"
     inkscape:zoom="5.0082305"
     inkscape:cx="127.98932"
     inkscape:cy="121.5"
     inkscape:window-width="2560"
     inkscape:window-height="1494"
     inkscape:window-x="-11"
     inkscape:window-y="-11"
     inkscape:window-maximized="1"
     inkscape:current-layer="svg153" />
  <!-- SVG created with Arrow, by QuiverAI (https://quiver.ai) -->
  <path
     d="m119.4 0h12.4c26.72 0 45.33 7.22 57.12 12.21 20.96 9.1 29.27 26.63 26.87 59.28-1.16 16.62-6.67 35.24-10.4 45.12l-4.62 2.06-3.89 8.16 0.58 21.9-3.54 21.49-5.2 15.88-10.79 19.93-11.36 15.63-9.11 3.5-7.44-4.75-2.77-10.2-10.42-2.25-6.68 22.89-8.45 4.95-10.79-6.79-9.3-16.08-4.88 2.98-10.03-6.5-12.92-20.3-7.58-22.99-2.12-30.51-6.06-13.42-7.25-5.32-5.46-14.86-9.02-25.6 2.68-31.56 10.33-17.04 14.68-6.79 23.1-3.17 16.95-7.02 15.37-10.83z"
     fill="url(#paint0_radial_12_9380)"
     opacity=".2"
     id="path2" />
  <path
     d="m126.2 7.82c-14.68-0.31-21.46 6.81-33.39 10.44-10.73 3.38-22.78-0.12-35.78 7.35-15.12 9.1-18.25 28.57-15.22 51.67 2.18 16.53 7.52 31.57 10.22 38.7l5.51 1.15 5.44-3.07 3.15 7.36 0.38 24.45c0 20.12 3.7 35.06 10.92 50.09 5.65 11.67 12.5 18.66 18.01 18.35 4.31-0.2 5.5-3.2 6.29-10.3 5.28 17.74 12.4 30.14 20.34 30.14 8.34 0 8.34-20.3 8.47-32.38 8.57 3.31 14.52-18.59 18.41-47.19 3.13 8.55 4.19 15.54 3.22 28.89-0.96 12.75-3.22 27.42 1.27 35.19 4.38 6.16 12.02-1.05 20.78-18.17 7.64-14.94 12.62-27.78 12.62-47.35l-0.38-23.84 5.54-14.32 7.94-1.05c2.83-8.82 8.87-25.3 9.72-40.24 1.07-21.63-4.79-42.81-22.53-48.57-11.93-4.1-21.04-2.35-32.04-6.36-10.03-3.72-16.26-10.84-28.89-10.94z"
     fill="url(#paint1_radial_12_9380)"
     opacity=".4"
     id="path3" />
  <path
     d="m126.1 10.16c-13.5 0-19.36 5.55-30.91 8.96-9.3 2.99-19.23 1.34-29.79 4.8-17.35 6.15-23.3 21.09-22.54 44.93 0.48 14.94 5.46 30.82 10.25 45.08l4.69 3.09 6.95-3.92 2.67 6.99-0.57 19.83c-0.77 17.43 2.37 32.76 9.9 49.7 6.47 15.13 13.33 23.89 19.47 23.89 4.79 0 5.55-5.85 5.74-13.07 4.39 16.18 11.34 33.41 19.9 33.41 8.66 0 8.18-22.89 8.75-34.78 8.95 5.85 16.29-23.9 18.13-45.36 5.06 12.08 4.96 20.04 3.5 36.21-1.16 12.84-2.41 25.99 4.84 29.7 6.67 1.84 17.09-16.47 23.04-32.54 5.65-14.37 6.8-21.83 6.8-39.26l-0.38-20.7 10.79-29.95c6.14-16.43 4.68-39.42-1.46-54.36-5.45-12.18-17.19-14.59-24.93-13.24-7.74 0.95-9.9 1.79-17.34 0.34-9.74-3.82-15.48-19.75-27.5-19.75z"
     fill="url(#paint2_linear_12_9380)"
     id="path4" />
  <path
     d="m124.6 18.46c-16.52 0-20.62 9.45-30.27 9.86-10.23 0.41-15.98-0.41-26.51 5.45-9.74 5.17-14.62 20.31-14.91 35.14-0.38 16.23 4.11 28.62 12.25 48.94l0.29 6.36 2.75-2.69 5.44 2.45 7.34-7.36c6.86 1.34 8.42 15.6 24.17 16.32l2.67-21.48 22.88 4.96 3.7-17.33-4.48-21.8c0.29-6.05 3.9-10.9 9.94-10.18 6.86 1.05 12.71 2.99 17.4 1.75 6.45-1.75 12.92-4.2 16.25-11.56-8.05 3.37-11.38-1.28-17.62-3.22-7.74-2.74-14.79-8.5-27.89-8.7-13.79-0.21-19.84 7.15-31.95 7.25-8.55 0.1-12.15-1.84-16.04-4.63 2.26-5.95 7.91-8.94 16.36-8.13 7.35 0.72 12.43 2.27 17.78 3.72-5.15-5.05-10.6-8.56-18.13-11.55 8.24-0.82 15.09-5.99 22.73-7.01 11.74-1.54 18.89 1.53 33.96 10.09l4-4.1c-8.25-0.94-14-12.55-32.11-12.55z"
     fill="url(#paint3_linear_12_9380)"
     opacity=".6"
     id="path5" />
  <path
     d="m168.9 30.12c-10.23 0.51-17.48 3.1-24.73 10.26l9.55-7.57c9.54-1.84 21.47-2.74 30.42 2.11 11.74 6.36 15.94 23.69 14.19 43.17-1.16 14.26-11.3 33.84-12.06 46.98l3.03-0.81 7.84-21.18c4.48-14.05 5.06-23.87 2.9-40.39-3.25-16.43-12.3-33.55-31.14-32.57z"
     fill="url(#paint4_linear_12_9380)"
     opacity=".8"
     id="path6" />
  <path
     d="m140 147.9c5.55 0.81 10.81 17.54 10.81 17.54-2.25 3.72-3.71 6.61-4.97 4.66-2.05-1.44-9.4 2.87-11.14 8.73-1.46 4.11-4.03 9.06-4.03 9.06-0.29-12.74 5.86-33.23 9.33-39.99z"
     fill="url(#paint5_linear_12_9380)"
     opacity=".6"
     id="path7" />
  <path
     d="m156.2 132.4c-9.83-0.82-25.09 23.69-28.46 44.39l1.95-46.74c7.94-3.09 17.77-23.39 24.53-21.65 9.43 2.59 17.07 13.77 17.07 21.24l-3.8 10.37c-1.46-2.99-4.13-7.1-11.29-7.61z"
     fill="url(#paint6_linear_12_9380)"
     opacity=".6"
     id="path8" />
  <path
     d="m182 146.8-11.84 51.15 9.64-22.16 2.86-14.36-0.66-14.63z"
     fill="url(#paint7_linear_12_9380)"
     opacity=".4"
     id="path9" />
  <path
     d="m81.47 132.1c6.14 4.11 10.62 14.68 12.47 29.62 2.16 15.33 4.61 32.76 6.97 42.48l-3.8 6.57-8.66-7.07-7.44-18.25-3.7-19.27 1.85-14.26 2.31-19.82z"
     fill="url(#paint8_linear_12_9380)"
     opacity=".7"
     id="path10" />
  <path
     d="m98.65 139.7 7.94 6.76 2.85 45.11-7.74-3.91-3.05-23.94v-24.02z"
     fill="url(#paint9_linear_12_9380)"
     opacity=".4"
     id="path11" />
  <path
     d="m97.79 172.7 4.78 3.51 4.79 1.75 1.46 1.65 5.75 0.92-5.45-1.66-1.76-1.84-4.6-1.54-4.97-2.79z"
     fill="#B5AA75"
     opacity=".5"
     id="path12" />
  <path
     d="m112.1 184.2 6.95 0.52-6.95-0.52z"
     fill="#B5AA75"
     opacity=".5"
     id="path13" />
  <path
     d="m98.65 187.7 5.06 3.29 5.25 1.34-5.95-2.18-4.36-2.45z"
     fill="#B5AA75"
     opacity=".5"
     id="path14" />
  <path
     d="m100.1 193.8 6.05 2.59 5.65 1.24-5.75-2.05-5.95-1.78z"
     fill="#B5AA75"
     opacity=".5"
     id="path15" />
  <path
     d="m105.8 207 7.84 5.15 5.15-0.3-5.65-1.45-7.34-3.4z"
     fill="#B5AA75"
     opacity=".5"
     id="path16" />
  <path
     d="m116.1 220.7 6.05-3.5 5.95-4.21-5.86 4.72-6.14 2.99z"
     fill="#B5AA75"
     opacity=".5"
     id="path17" />
  <path
     d="m117.5 198.2 2.67-5.96 5.34-2.38-5.34 3.09-2.67 5.25z"
     fill="#B5AA75"
     opacity=".5"
     id="path18" />
  <path
     d="m109.2 205.9 5.85-5.95 1.75-2.04-1.75 2.88-5.85 5.11z"
     fill="#B5AA75"
     opacity=".5"
     id="path19" />
  <path
     d="m119.3 207.7 4.38-2.55-4.38 2.55z"
     fill="#B5AA75"
     opacity=".5"
     id="path20" />
  <path
     d="m83.72 196.1 5.06 1.13 3.04 0.81-3.7-1.13-4.4-0.81z"
     fill="#B5AA75"
     opacity=".5"
     id="path21" />
  <path
     d="m73.39 181 5.35 2.76 1.75 2.35 5.65 1.55-5.85-2.25-1.75-2.05-5.15-2.36z"
     fill="#B5AA75"
     opacity=".5"
     id="path22" />
  <path
     d="m79.34 172.5 2.46 2.15-2.46-2.15z"
     fill="#B5AA75"
     opacity=".5"
     id="path23" />
  <path
     d="m74.46 177.4 6.45 2.49-6.45-2.49z"
     fill="#B5AA75"
     opacity=".5"
     id="path24" />
  <path
     d="m67.61 151.9 1.84 5.76 5.25 3.5 0.77 3.91 3.6 1.55 0.66 2.15 0.96-1.34-2.57-1.75-1.36-4.62-4.69-2.69-4.46-6.47z"
     fill="#B5AA75"
     opacity=".5"
     id="path25" />
  <path
     d="m66.15 141.4 4.96 3.61 3.04 3.5 5.76 1.85-6.14-2.25-2.95-3.61-4.67-3.1z"
     fill="#B5AA75"
     opacity=".5"
     id="path26" />
  <path
     d="m126.2 187 5.65-4.61 0.38 0.81-6.03 3.8z"
     fill="#B5AA75"
     opacity=".5"
     id="path27" />
  <path
     d="m97.01 60.64c6.77 0.31 9.83 0.11 18.27-2.68 5.35-1.24 8.4-1.65 8.69-2.69 0.67-2.04-0.19-3.29-3.34-2.45-6.67 0.72-12.42 5.79-23.62 7.82z"
     fill="url(#paint10_linear_12_9380)"
     opacity=".8"
     id="path28" />
  <path
     d="m50.91 110.1 7.15 6.06 5.35-3.2 2.26-4.63 2.85 4.63 2.45-0.3 3.7-5.16 4.2 1.03 5.05 2.15 1.16 1.25 1.95-1.75 0.96 2.99 1.75-1.04 0.96 1.75h2.05l1.06 1.03 1.85-1.24 1.46 1.65 1.84-0.92 1.26 0.81 1.75-1.24"
     opacity=".8"
     stroke="url(#paint11_linear_12_9380)"
     stroke-miterlimit="10"
     stroke-width=".7"
     id="path29" />
  <path
     d="m186.4 124 2.47-0.06 5.05-6.26 2.16-3.91 1.66-0.61 0.38-3.19 1.55 0.3 0.96-3.3"
     opacity=".8"
     stroke="url(#paint12_linear_12_9380)"
     stroke-miterlimit="10"
     stroke-width=".7"
     id="path30" />
  <path
     d="m36.83 115.1-2.85 2.76 0.67 3.4 2.85 2.05 2.76-0.62 0.67-1.64-0.58-5.15-3.52-0.8z"
     fill="url(#paint13_radial_12_9380)"
     opacity=".6"
     id="path31" />
  <path
     d="m248.7 111.3-1.46 2.35 1.46 2.56 2.46 0.51 2.06-1.74v-2.75l-2.16-2.15-2.36 1.22z"
     fill="url(#paint14_radial_12_9380)"
     opacity=".3"
     id="path32" />
  <path
     d="m241.7 123.7-1.46 1.75v2.35l2.46 1.44 2.46-1.03 0.86-2.76-1.94-2.25-2.38 0.5z"
     fill="url(#paint15_radial_12_9380)"
     opacity=".6"
     id="path33" />
  <path
     d="m226.8 91.64-0.77 1.85 0.96 1.75 1.85 0.31 1.36-1.75-0.29-2.05-1.65-0.92-1.46 0.81z"
     fill="url(#paint16_radial_12_9380)"
     opacity=".3"
     id="path34" />
  <path
     d="m205.9 138.2-2.46 4.73 1.16 3.4 4.1 1.45 2.46-1.85 0.86-4.65-3.32-3.18-2.8 0.1z"
     fill="url(#paint17_radial_12_9380)"
     opacity=".6"
     id="path35" />
  <path
     d="m211.8 150.9-4.69 5.06v4.21l4.96 5.16 5.25-0.3 4-4.86 0.38-4.93-3.05-4.54-6.85 0.2z"
     fill="url(#paint18_radial_12_9380)"
     opacity=".3"
     id="path36" />
  <path
     d="m 192.28389,170.00526 -3.15,2.05 v 4.75 l 3.15,3.29 4.59,-0.72 2.46,-3.71 -1.16,-5.25 -2.95,-1.54 z"
     fill="url(#paint19_radial_12_9380)"
     opacity="0.6"
     id="path37"
     style="fill:url(#paint19_radial_12_9380)" />
  <path
     d="m191.7 195.2-0.58 2.15 1.85 1.44 1.75-0.71 0.58-2.46-1.65-1.24-1.95 0.82z"
     fill="url(#paint20_radial_12_9380)"
     opacity=".3"
     id="path38" />
  <path
     d="m159.2 235.2-0.76 2.55 1.85 1.95 2.46-0.92 0.76-2.25-1.46-2.15-2.85 0.82z"
     fill="url(#paint21_radial_12_9380)"
     opacity=".3"
     id="path39" />
  <path
     d="m142.3 227.8-3.04 4.21 1.46 4.18 5.15 1.24 2.85-2.69-0.38-4.94-3.6-2.66-2.44 0.66z"
     fill="url(#paint22_radial_12_9380)"
     opacity=".6"
     id="path40" />
  <path
     d="m146.1 215.7-0.77 2.15 1.46 1.24 1.95-0.72 0.29-2.05-1.36-1.13-1.57 0.51z"
     fill="url(#paint23_radial_12_9380)"
     opacity=".3"
     id="path41" />
  <path
     d="m71.5 212.7-1.46 2.66 1.85 2.76 3.15 0.3 1.94-2.65-0.86-3.27-2.76-1.15-1.86 1.35z"
     fill="url(#paint24_radial_12_9380)"
     opacity=".3"
     id="path42" />
  <path
     d="m58.01 190.1-1.95 2.89 2.46 3.4 3.25 0.21 1.55-2.76-0.96-3.4-2.85-1.15-1.5 0.81z"
     fill="url(#paint25_radial_12_9380)"
     opacity=".6"
     id="path43" />
  <path
     d="m66.15 172-1.75 2.66 1.75 3.21 2.46 0.61 3.6-2.66 0.38-3.31-2.85-2.45-3.59 1.94z"
     fill="url(#paint26_radial_12_9380)"
     opacity=".6"
     id="path44" />
  <path
     d="m43.61 148.7-1.55 2.76 2.05 2.25 2.76-0.61 0.76-2.97-2.05-2.45-1.97 1.02z"
     fill="url(#paint27_radial_12_9380)"
     opacity=".6"
     id="path45" />
  <path
     d="m44.57 165.3-0.38 2.05 1.95 1.24 2.15-0.93 0.38-2.46-1.85-1.34-2.25 1.44z"
     fill="url(#paint28_radial_12_9380)"
     opacity=".3"
     id="path46" />
  <path
     d="m31.16 155.3-3.8 3.5 0.38 5.45 3.61 3.35h6.55l3.32-2.55 0.48-5.95-3.61-2.98-2.55-1.85-4.38 1.03z"
     fill="url(#paint29_radial_12_9380)"
     opacity=".6"
     id="path47" />
  <path
     d="m200.1 161.1-0.96 2.25 1.45 1.35 2.26-1.25 0.19-2.65-1.85-0.82-1.09 1.12z"
     fill="url(#paint30_radial_12_9380)"
     opacity=".3"
     id="path48" />
  <path
     d="m20.97 80.34-0.38 1.94 1.65 1.55 2.26-0.31 0.86-2.25-1.35-2.05-2.16-0.1-0.88 1.22z"
     fill="url(#paint31_radial_12_9380)"
     opacity=".3"
     id="path49" />
  <path
     d="m3.12 131.6-0.29 1.74 1.06 1.03 1.46-0.82v-1.85l-1.17-0.71-1.06 0.61z"
     fill="url(#paint32_radial_12_9380)"
     opacity=".3"
     id="path50" />
  <path
     d="m26.51 194.2 0.19 1.54 1.46 0.51 1.36-1.13-0.19-1.64-1.46-0.61-1.36 1.33z"
     fill="url(#paint33_radial_12_9380)"
     opacity=".3"
     id="path51" />
  <path
     d="m236.4 191.5 0.29 1.84 2.05 0.72 1.36-1.64-0.58-2.15-2.05-0.41-1.07 1.64z"
     fill="url(#paint34_radial_12_9380)"
     opacity=".3"
     id="path52" />
  <path
     d="m197.1 125.2-0.96 0.81 0.58 1.03 1.06-0.51-0.68-1.33z"
     fill="#8BD0F1"
     id="path53" />
  <path
     d="m192.9 138.1-0.86 0.62 0.67 0.82 0.96-0.72-0.77-0.72z"
     fill="#8BD0F1"
     id="path54" />
  <path
     d="m188.7 142.9-0.58 0.71 0.78 0.52 0.57-0.92-0.77-0.31z"
     fill="#8BD0F1"
     id="path55" />
  <path
     d="m190.1 154-0.77 0.72 0.67 0.71 0.76-0.81-0.66-0.62z"
     fill="#8BD0F1"
     id="path56" />
  <path
     d="m194.4 133-0.77 0.62 0.67 0.71 0.76-0.71-0.66-0.62z"
     fill="#8BD0F1"
     id="path57" />
  <path
     d="m194.2 148.1-0.86 0.72 0.77 0.71 0.85-0.81-0.76-0.62z"
     fill="#8BD0F1"
     id="path58" />
  <path
     d="m187.5 129-0.67 0.61 0.67 0.62 0.76-0.62-0.76-0.61z"
     fill="#8BD0F1"
     id="path59" />
  <path
     d="m176 120.8-0.76 0.71 0.76 0.72 0.76-1.03-0.76-0.4z"
     fill="#8BD0F1"
     id="path60" />
  <path
     d="m173.5 119.2-0.76 0.61 0.67 0.72 0.76-0.72-0.67-0.61z"
     fill="#8BD0F1"
     id="path61" />
  <path
     d="m182.3 115.3-0.76 0.72 0.67 0.61 0.76-0.81-0.67-0.52z"
     fill="#8BD0F1"
     id="path62" />
  <path
     d="m192.7 117.5-0.66 0.71 0.66 0.51 0.76-0.61-0.76-0.61z"
     fill="#8BD0F1"
     id="path63" />
  <path
     d="m197.3 113.1-0.66 0.61 0.66 0.62 0.67-0.72-0.67-0.51z"
     fill="#8BD0F1"
     id="path64" />
  <path
     d="m199.8 101.8-0.57 0.71 0.67 0.51 0.57-0.81-0.67-0.41z"
     fill="#8BD0F1"
     id="path65" />
  <path
     d="m61.39 112-0.66 0.71 0.76 0.51 0.57-0.81-0.67-0.41z"
     fill="#8BD0F1"
     id="path66" />
  <path
     d="m54.05 118.1-0.67 0.71 0.76 0.51 0.67-0.71-0.76-0.51z"
     fill="#8BD0F1"
     id="path67" />
  <path
     d="m54.91 123.9-0.67 0.71 0.67 0.62 0.76-0.82-0.76-0.51z"
     fill="#8BD0F1"
     id="path68" />
  <path
     d="m56.06 129.8-0.86 0.71 0.76 0.72 0.76-0.82-0.66-0.61z"
     fill="#8BD0F1"
     id="path69" />
  <path
     d="m57.81 135.6-0.67 0.72 0.67 0.51 0.76-0.71-0.76-0.52z"
     fill="#8BD0F1"
     id="path70" />
  <path
     d="m61.01 126-0.76 0.72 0.66 0.71 0.76-0.81-0.66-0.62z"
     fill="#8BD0F1"
     id="path71" />
  <path
     d="m53.95 138.2-0.38 0.61 0.57 0.31 0.38-0.71-0.57-0.21z"
     fill="#8BD0F1"
     id="path72" />
  <path
     d="m61.78 153-0.58 0.61 0.67 0.51 0.57-0.71-0.66-0.41z"
     fill="#8BD0F1"
     id="path73" />
  <path
     d="m75.71 114.4-0.57 0.51 0.57 0.41 0.57-0.61-0.57-0.31z"
     fill="#8BD0F1"
     id="path74" />
  <path
     d="m68.27 117.2-0.66 0.72 0.66 0.61 0.67-0.81-0.67-0.52z"
     fill="#8BD0F1"
     id="path75" />
  <path
     d="m197.2 106.8v-2.75l4.45-2.66v5.41h-4.45zm-4.78 2.76v-5.51l4.49-2.66v5.41l-4.49 2.76zm-4.78 2.66v-5.42l4.49-2.75v5.51l-4.49 2.66zm-4.78 2.75v-5.41l4.49-2.76v5.42l-4.49 2.75zm-4.79 2.65v-5.41l4.5-2.65v5.41l-4.5 2.65zm14.35-16.23v-5.46l4.49-2.65v5.45l-4.49 2.66zm-4.78 2.76v-5.42l4.49-2.8v5.46l-4.49 2.76zm-4.78 2.65v-5.41l4.49-2.66v5.42l-4.49 2.65zm-4.79 2.76v-5.51l4.5-2.66v5.41l-4.5 2.76zm-4.78 2.66v-5.42l4.49-2.75v5.51l-4.49 2.66zm23.91-18.94v-5.45l2.95-1.75v5.43l-2.95 1.77zm-4.78 2.65v-5.45l4.49-2.65v5.45l-4.49 2.65zm-4.78 2.76v-5.41l4.49-2.8v5.45l-4.49 2.76zm-4.78 2.65v-5.41l4.49-2.65v5.41l-4.49 2.65zm-4.79 2.76v-5.41l4.5-2.76v5.41l-4.5 2.76zm-4.78 2.65v-5.41l4.49-2.65v5.41l-4.49 2.65zm23.91-21.69v-5.45l3.05-1.85v5.55l-3.05 1.75zm-4.78 2.76v-5.45l4.49-2.76v5.45l-4.49 2.76zm-4.78 2.66v-5.42l4.49-2.69v5.45l-4.49 2.66zm-4.78 2.75v-5.41l4.49-2.76v5.42l-4.49 2.75zm-4.79 2.66v-5.41l4.5-2.66v5.41l-4.5 2.66zm-4.78 2.75v-5.41l4.49-2.75v5.41l-4.49 2.75zm23.91-21.8v-5.45l3.05-1.85v5.45l-3.05 1.85zm-4.78 2.66v-5.45l4.49-2.66v5.45l-4.49 2.66zm-4.78 2.75v-5.41l4.49-2.79v5.45l-4.49 2.75zm-4.78 2.66v-5.41l4.49-2.66v5.41l-4.49 2.66zm-4.79 2.75v-5.41l4.5-2.75v5.41l-4.5 2.75zm-4.78 2.76v-5.42l4.49-2.75v5.41l-4.49 2.76zm19.13-19.03v-5.45l4.49-2.65v5.45l-4.49 2.65zm-4.78 2.76v-5.41l4.49-2.8v5.45l-4.49 2.76zm-4.78 2.65v-5.41l4.49-2.65v5.41l-4.49 2.65zm-4.79 2.76v-5.41l4.5-2.76v5.41l-4.5 2.76zm-4.78 2.65v-5.41l4.49-2.65v5.41l-4.49 2.65zm19.13-18.92v-5.45l4.49-2.76v5.45l-4.49 2.76zm-4.78 2.75v-5.51l4.49-2.69v5.45l-4.49 2.75zm-4.78 2.66v-5.41l4.49-2.76v5.51l-4.49 2.66zm-4.79 2.75v-5.41l4.5-2.75v5.41l-4.5 2.75zm-4.78 2.66v-5.41l4.49-2.66v5.41l-4.49 2.66zm14.35-16.27v-5.45l4.49-2.76v5.45l-4.49 2.76zm-4.78 2.75v-5.51l4.49-2.69v5.45l-4.49 2.75zm-4.79 2.66v-5.41l4.5-2.76v5.51l-4.5 2.66zm-4.78 2.65v-5.41l4.49-2.65v5.41l-4.49 2.65zm9.57-13.51v-5.45l4.49-2.66v5.35l-4.49 2.76zm-4.79 2.75v-5.51l4.5-2.69v5.45l-4.5 2.75zm-4.78 2.65v-5.41l4.49-2.75v5.45l-4.49 2.71z"
     stroke="#fff"
     stroke-miterlimit="10"
     stroke-width=".2"
     id="path76" />
  <path
     d="m56.16 47.17 3.6 2.45 4.49-2.65 4.49 2.65 4.49-2.65 3.6 2.65"
     opacity=".8"
     stroke="#fff"
     stroke-miterlimit="10"
     stroke-width=".2"
     id="path77" />
  <path
     d="m53.69 55.01 3.6 2.55 4.49-2.65 4.49 2.65 4.49-2.65 3.6 2.65"
     opacity=".8"
     stroke="#fff"
     stroke-miterlimit="10"
     stroke-width=".2"
     id="path78" />
  <path
     d="m53.69 63.01 3.6 2.55 4.49-2.65 4.49 2.65 4.49-2.65 3.6 2.65"
     opacity=".8"
     stroke="#fff"
     stroke-miterlimit="10"
     stroke-width=".2"
     id="path79" />
  <path
     d="m55.15 72.16 3.6 2.55 4.49-2.65 4.49 2.65 4.49-2.65 3.6 2.65"
     opacity=".8"
     stroke="#fff"
     stroke-miterlimit="10"
     stroke-width=".2"
     id="path80" />
  <path
     d="m57.21 81.26 3.6 2.56 4.49-2.66 4.49 2.66 4.49-2.66 3.6 2.66"
     opacity=".8"
     stroke="#fff"
     stroke-miterlimit="10"
     stroke-width=".2"
     id="path81" />
  <path
     d="m62.46 89.03 3.6 2.55 4.49-2.65 4.49 2.65 4.49-2.65 3.6 2.65"
     opacity=".8"
     stroke="#fff"
     stroke-miterlimit="10"
     stroke-width=".2"
     id="path82" />
  <path
     d="m65.41 96.09 3.6 2.56 4.49-2.66 4.49 2.66 4.49-2.66 3.6 2.66"
     opacity=".8"
     stroke="#fff"
     stroke-miterlimit="10"
     stroke-width=".2"
     id="path83" />
  <defs
     id="defs153">
    <radialGradient
       id="paint0_radial_12_9380"
       cx="0"
       cy="0"
       r="1"
       gradientTransform="translate(128 80.55) scale(118.1 117.5)"
       gradientUnits="userSpaceOnUse">
      <stop
         stop-color="#97D9F6"
         offset="0"
         id="stop83" />
      <stop
         stop-color="#97D9F6"
         stop-opacity=".01"
         offset="1"
         id="stop84" />
    </radialGradient>
    <radialGradient
       id="paint1_radial_12_9380"
       cx="0"
       cy="0"
       r="1"
       gradientTransform="translate(126 121.2) scale(116.4 115.8)"
       gradientUnits="userSpaceOnUse">
      <stop
         stop-color="#97D9F6"
         offset="0"
         id="stop85" />
      <stop
         stop-color="#97D9F6"
         stop-opacity=".01"
         offset="1"
         id="stop86" />
    </radialGradient>
    <linearGradient
       id="paint2_linear_12_9380"
       x1="125.1"
       x2="125.1"
       y1="10.16"
       y2="233.8"
       gradientUnits="userSpaceOnUse">
      <stop
         stop-color="#fff"
         offset="0"
         id="stop87" />
      <stop
         stop-color="#F6F0DF"
         offset=".515"
         id="stop88" />
      <stop
         stop-color="#D8C7AE"
         offset="1"
         id="stop89" />
    </linearGradient>
    <linearGradient
       id="paint3_linear_12_9380"
       x1="119.4"
       x2="119.4"
       y1="18.46"
       y2="124.2"
       gradientUnits="userSpaceOnUse">
      <stop
         stop-color="#97D9F6"
         offset="0"
         id="stop90" />
      <stop
         stop-color="#97D9F6"
         stop-opacity=".01"
         offset="1"
         id="stop91" />
    </linearGradient>
    <linearGradient
       id="paint4_linear_12_9380"
       x1="173.1"
       x2="173.1"
       y1="29.99"
       y2="125.1"
       gradientUnits="userSpaceOnUse">
      <stop
         stop-color="#97D9F6"
         offset="0"
         id="stop92" />
      <stop
         stop-color="#97D9F6"
         stop-opacity=".01"
         offset="1"
         id="stop93" />
    </linearGradient>
    <linearGradient
       id="paint5_linear_12_9380"
       x1="143.2"
       x2="143.2"
       y1="147.8"
       y2="178.6"
       gradientUnits="userSpaceOnUse">
      <stop
         stop-color="#A79679"
         offset="0"
         id="stop94" />
      <stop
         stop-color="#B4A689"
         stop-opacity=".59"
         offset="1"
         id="stop95" />
    </linearGradient>
    <linearGradient
       id="paint6_linear_12_9380"
       x1="145.9"
       x2="145.9"
       y1="107"
       y2="140.7"
       gradientUnits="userSpaceOnUse">
      <stop
         stop-color="#F0E2C4"
         stop-opacity=".8"
         offset="0"
         id="stop96" />
      <stop
         stop-color="#F0E2C4"
         stop-opacity=".01"
         offset="1"
         id="stop97" />
    </linearGradient>
    <linearGradient
       id="paint7_linear_12_9380"
       x1="176.4"
       x2="176.4"
       y1="146.8"
       y2="197.9"
       gradientUnits="userSpaceOnUse">
      <stop
         stop-color="#fff"
         offset="0"
         id="stop98" />
      <stop
         stop-color="#fff"
         stop-opacity=".01"
         offset="1"
         id="stop99" />
    </linearGradient>
    <linearGradient
       id="paint8_linear_12_9380"
       x1="90.02"
       x2="90.02"
       y1="132.1"
       y2="210.8"
       gradientUnits="userSpaceOnUse">
      <stop
         stop-color="#C9B697"
         offset="0"
         id="stop100" />
      <stop
         stop-color="#D8C7AE"
         offset=".72"
         id="stop101" />
    </linearGradient>
    <linearGradient
       id="paint9_linear_12_9380"
       x1="104"
       x2="104"
       y1="139.7"
       y2="192.3"
       gradientUnits="userSpaceOnUse">
      <stop
         stop-color="#fff"
         offset="0"
         id="stop102" />
      <stop
         stop-color="#fff"
         stop-opacity=".01"
         offset="1"
         id="stop103" />
    </linearGradient>
    <linearGradient
       id="paint10_linear_12_9380"
       x1="109.4"
       x2="109.4"
       y1="52.47"
       y2="60.96"
       gradientUnits="userSpaceOnUse">
      <stop
         stop-color="#fff"
         offset="0"
         id="stop104" />
      <stop
         stop-color="#fff"
         stop-opacity=".73"
         offset="1"
         id="stop105" />
    </linearGradient>
    <linearGradient
       id="paint11_linear_12_9380"
       x1="94.58"
       x2="94.58"
       y1="107.5"
       y2="116.2"
       gradientUnits="userSpaceOnUse">
      <stop
         stop-color="#D3F0FD"
         offset="0"
         id="stop106" />
      <stop
         stop-color="#D3F0FD"
         stop-opacity=".01"
         offset="1"
         id="stop107" />
    </linearGradient>
    <linearGradient
       id="paint12_linear_12_9380"
       x1="192.2"
       x2="192.2"
       y1="109.9"
       y2="124"
       gradientUnits="userSpaceOnUse">
      <stop
         stop-color="#D3F0FD"
         offset="0"
         id="stop108" />
      <stop
         stop-color="#D3F0FD"
         stop-opacity=".01"
         offset="1"
         id="stop109" />
    </linearGradient>
    <radialGradient
       id="paint13_radial_12_9380"
       cx="0"
       cy="0"
       r="1"
       gradientTransform="translate(36.93 118.8) scale(5.236 5.208)"
       gradientUnits="userSpaceOnUse">
      <stop
         stop-color="#97D9F6"
         offset="0"
         id="stop110" />
      <stop
         stop-color="#97D9F6"
         stop-opacity=".46"
         offset="1"
         id="stop111" />
    </radialGradient>
    <radialGradient
       id="paint14_radial_12_9380"
       cx="0"
       cy="0"
       r="1"
       gradientTransform="translate(250.2 113.3) scale(4.242 4.221)"
       gradientUnits="userSpaceOnUse">
      <stop
         stop-color="#97D9F6"
         offset="0"
         id="stop112" />
      <stop
         stop-color="#97D9F6"
         stop-opacity=".46"
         offset="1"
         id="stop113" />
    </radialGradient>
    <radialGradient
       id="paint15_radial_12_9380"
       cx="0"
       cy="0"
       r="1"
       gradientTransform="translate(243.2 125.8) scale(3.921 3.897)"
       gradientUnits="userSpaceOnUse">
      <stop
         stop-color="#97D9F6"
         offset="0"
         id="stop114" />
      <stop
         stop-color="#97D9F6"
         stop-opacity=".46"
         offset="1"
         id="stop115" />
    </radialGradient>
    <radialGradient
       id="paint16_radial_12_9380"
       cx="0"
       cy="0"
       r="1"
       gradientTransform="translate(228.1 93.46) scale(2.731 2.717)"
       gradientUnits="userSpaceOnUse">
      <stop
         stop-color="#97D9F6"
         offset="0"
         id="stop116" />
      <stop
         stop-color="#97D9F6"
         stop-opacity=".46"
         offset="1"
         id="stop117" />
    </radialGradient>
    <radialGradient
       id="paint17_radial_12_9380"
       cx="0"
       cy="0"
       r="1"
       gradientTransform="translate(207.7 142.3) scale(6.094 6.062)"
       gradientUnits="userSpaceOnUse">
      <stop
         stop-color="#97D9F6"
         offset="0"
         id="stop118" />
      <stop
         stop-color="#97D9F6"
         stop-opacity=".46"
         offset="1"
         id="stop119" />
    </radialGradient>
    <radialGradient
       id="paint18_radial_12_9380"
       cx="0"
       cy="0"
       r="1"
       gradientTransform="translate(213.7 157.3) scale(8.701 8.652)"
       gradientUnits="userSpaceOnUse">
      <stop
         stop-color="#97D9F6"
         offset="0"
         id="stop120" />
      <stop
         stop-color="#97D9F6"
         stop-opacity=".46"
         offset="1"
         id="stop121" />
    </radialGradient>
    <radialGradient
       id="paint19_radial_12_9380"
       cx="0"
       cy="0"
       r="1"
       gradientTransform="matrix(7.026,0,0,6.989,194.78389,173.90526)"
       gradientUnits="userSpaceOnUse">
      <stop
         stop-color="#97D9F6"
         offset="0"
         id="stop122" />
      <stop
         stop-color="#97D9F6"
         stop-opacity=".46"
         offset="1"
         id="stop123" />
    </radialGradient>
    <radialGradient
       id="paint20_radial_12_9380"
       cx="0"
       cy="0"
       r="1"
       gradientTransform="translate(193.2 196.3) scale(3.169 3.152)"
       gradientUnits="userSpaceOnUse">
      <stop
         stop-color="#97D9F6"
         offset="0"
         id="stop124" />
      <stop
         stop-color="#97D9F6"
         stop-opacity=".46"
         offset="1"
         id="stop125" />
    </radialGradient>
    <radialGradient
       id="paint21_radial_12_9380"
       cx="0"
       cy="0"
       r="1"
       gradientTransform="translate(161 236.6) scale(3.378 3.36)"
       gradientUnits="userSpaceOnUse">
      <stop
         stop-color="#97D9F6"
         offset="0"
         id="stop126" />
      <stop
         stop-color="#97D9F6"
         stop-opacity=".46"
         offset="1"
         id="stop127" />
    </radialGradient>
    <radialGradient
       id="paint22_radial_12_9380"
       cx="0"
       cy="0"
       r="1"
       gradientTransform="translate(143.9 231.8) scale(6.238 6.204)"
       gradientUnits="userSpaceOnUse">
      <stop
         stop-color="#97D9F6"
         offset="0"
         id="stop128" />
      <stop
         stop-color="#97D9F6"
         stop-opacity=".46"
         offset="1"
         id="stop129" />
    </radialGradient>
    <radialGradient
       id="paint23_radial_12_9380"
       cx="0"
       cy="0"
       r="1"
       gradientTransform="translate(147.2 216.9) scale(2.549 2.535)"
       gradientUnits="userSpaceOnUse">
      <stop
         stop-color="#97D9F6"
         offset="0"
         id="stop130" />
      <stop
         stop-color="#97D9F6"
         stop-opacity=".46"
         offset="1"
         id="stop131" />
    </radialGradient>
    <radialGradient
       id="paint24_radial_12_9380"
       cx="0"
       cy="0"
       r="1"
       gradientTransform="translate(73.52 214.3) scale(4.318 4.297)"
       gradientUnits="userSpaceOnUse">
      <stop
         stop-color="#97D9F6"
         offset="0"
         id="stop132" />
      <stop
         stop-color="#97D9F6"
         stop-opacity=".46"
         offset="1"
         id="stop133" />
    </radialGradient>
    <radialGradient
       id="paint25_radial_12_9380"
       cx="0"
       cy="0"
       r="1"
       gradientTransform="translate(59.51 192.8) scale(4.229 4.208)"
       gradientUnits="userSpaceOnUse">
      <stop
         stop-color="#97D9F6"
         offset="0"
         id="stop134" />
      <stop
         stop-color="#97D9F6"
         stop-opacity=".46"
         offset="1"
         id="stop135" />
    </radialGradient>
    <radialGradient
       id="paint26_radial_12_9380"
       cx="0"
       cy="0"
       r="1"
       gradientTransform="translate(68.42 173.7) scale(5.061 5.035)"
       gradientUnits="userSpaceOnUse">
      <stop
         stop-color="#97D9F6"
         offset="0"
         id="stop136" />
      <stop
         stop-color="#97D9F6"
         stop-opacity=".46"
         offset="1"
         id="stop137" />
    </radialGradient>
    <radialGradient
       id="paint27_radial_12_9380"
       cx="0"
       cy="0"
       r="1"
       gradientTransform="translate(44.85 150.5) scale(3.459 3.44)"
       gradientUnits="userSpaceOnUse">
      <stop
         stop-color="#97D9F6"
         offset="0"
         id="stop138" />
      <stop
         stop-color="#97D9F6"
         stop-opacity=".46"
         offset="1"
         id="stop139" />
    </radialGradient>
    <radialGradient
       id="paint28_radial_12_9380"
       cx="0"
       cy="0"
       r="1"
       gradientTransform="translate(46.41 165.7) scale(2.706 2.692)"
       gradientUnits="userSpaceOnUse">
      <stop
         stop-color="#97D9F6"
         offset="0"
         id="stop140" />
      <stop
         stop-color="#97D9F6"
         stop-opacity=".46"
         offset="1"
         id="stop141" />
    </radialGradient>
    <radialGradient
       id="paint29_radial_12_9380"
       cx="0"
       cy="0"
       r="1"
       gradientTransform="translate(34.58 160.4) scale(8.047 8.003)"
       gradientUnits="userSpaceOnUse">
      <stop
         stop-color="#97D9F6"
         offset="0"
         id="stop142" />
      <stop
         stop-color="#97D9F6"
         stop-opacity=".46"
         offset="1"
         id="stop143" />
    </radialGradient>
    <radialGradient
       id="paint30_radial_12_9380"
       cx="0"
       cy="0"
       r="1"
       gradientTransform="translate(201.1 161.6) scale(2.991 2.974)"
       gradientUnits="userSpaceOnUse">
      <stop
         stop-color="#97D9F6"
         offset="0"
         id="stop144" />
      <stop
         stop-color="#97D9F6"
         stop-opacity=".46"
         offset="1"
         id="stop145" />
    </radialGradient>
    <radialGradient
       id="paint31_radial_12_9380"
       cx="0"
       cy="0"
       r="1"
       gradientTransform="translate(22.04 81.23) scale(2.912 2.897)"
       gradientUnits="userSpaceOnUse">
      <stop
         stop-color="#97D9F6"
         offset="0"
         id="stop146" />
      <stop
         stop-color="#97D9F6"
         stop-opacity=".46"
         offset="1"
         id="stop147" />
    </radialGradient>
    <radialGradient
       id="paint32_radial_12_9380"
       cx="0"
       cy="0"
       r="1"
       gradientTransform="translate(4.065 133) scale(1.602 1.593)"
       gradientUnits="userSpaceOnUse">
      <stop
         stop-color="#97D9F6"
         offset="0"
         id="stop148" />
      <stop
         stop-color="#97D9F6"
         stop-opacity=".46"
         offset="1"
         id="stop149" />
    </radialGradient>
    <radialGradient
       id="paint33_radial_12_9380"
       cx="0"
       cy="0"
       r="1"
       gradientTransform="translate(27.19 194.2) scale(2.083 2.071)"
       gradientUnits="userSpaceOnUse">
      <stop
         stop-color="#97D9F6"
         offset="0"
         id="stop150" />
      <stop
         stop-color="#97D9F6"
         stop-opacity=".46"
         offset="1"
         id="stop151" />
    </radialGradient>
    <radialGradient
       id="paint34_radial_12_9380"
       cx="0"
       cy="0"
       r="1"
       gradientTransform="translate(238.2 191.6) scale(3.147 3.13)"
       gradientUnits="userSpaceOnUse">
      <stop
         stop-color="#97D9F6"
         offset="0"
         id="stop152" />
      <stop
         stop-color="#97D9F6"
         stop-opacity=".46"
         offset="1"
         id="stop153" />
    </radialGradient>
  </defs>
</svg>
